<svg width="90" height="50" viewBox="0 0 90 50" fill="none" xmlns="http://www.w3.org/2000/svg">
<path d="M0 6.25H11.25V37.5H0V6.25ZM16.875 6.25H22.5V37.5H16.875V6.25ZM28.125 6.25H33.75V37.5H28.125V6.25ZM45 6.25H50.625V37.5H45V6.25ZM67.5 6.25H73.125V37.5H67.5V6.25ZM84.375 6.25H90V37.5H84.375V6.25ZM56.25 6.25H59.0625V37.5H56.25V6.25ZM39.375 6.25H42.1875V37.5H39.375V6.25ZM75.9375 6.25H78.75V37.5H75.9375V6.25ZM0 40.625H5.625V43.75H0V40.625ZM16.875 40.625H22.5V43.75H16.875V40.625ZM28.125 40.625H33.75V43.75H28.125V40.625ZM56.25 40.625H61.875V43.75H56.25V40.625ZM84.375 40.625H90V43.75H84.375V40.625ZM67.5 40.625H78.75V43.75H67.5V40.625ZM39.375 40.625H50.625V43.75H39.375V40.625Z" fill="black"/>
</svg>
