<svg width="45" height="46" viewBox="0 0 45 46" fill="none" xmlns="http://www.w3.org/2000/svg">
<path d="M32.8125 22.5063C35.5475 22.5063 38.1706 23.5928 40.1045 25.5268C42.0385 27.4608 43.125 30.0838 43.125 32.8188C43.125 35.5539 42.0385 38.1769 40.1045 40.1109C38.1706 42.0449 35.5475 43.1313 32.8125 43.1313C30.0775 43.1313 27.4544 42.0449 25.5205 40.1109C23.5865 38.1769 22.5 35.5539 22.5 32.8188C22.5 30.0838 23.5865 27.4608 25.5205 25.5268C27.4544 23.5928 30.0775 22.5063 32.8125 22.5063ZM33.2812 5.63135C34.8974 5.63135 36.4474 6.27337 37.5902 7.41617C38.733 8.55897 39.375 10.1089 39.375 11.7251L39.3769 22.5495C38.5004 21.9868 37.5551 21.5394 36.5644 21.2182L36.5625 15.9438H8.4375V33.2876C8.4375 35.0988 9.9075 36.5688 11.7188 36.5688H21.2137C21.5363 37.5701 21.9862 38.5151 22.5431 39.3832L11.7188 39.3813C10.1026 39.3813 8.55262 38.7393 7.40982 37.5965C6.26702 36.4537 5.625 34.9038 5.625 33.2876V11.7251C5.625 10.1089 6.26702 8.55897 7.40982 7.41617C8.55262 6.27337 10.1026 5.63135 11.7188 5.63135H33.2812ZM32.8125 26.2563L32.6437 26.2713C32.4564 26.3056 32.284 26.396 32.1493 26.5307C32.0147 26.6653 31.9242 26.8378 31.89 27.0251L31.875 27.1938V31.8813H27.1875L27.0187 31.8963C26.8314 31.9306 26.659 32.021 26.5243 32.1557C26.3897 32.2903 26.2992 32.4628 26.265 32.6501L26.25 32.8188L26.265 32.9876C26.2992 33.1749 26.3897 33.3474 26.5243 33.482C26.659 33.6167 26.8314 33.7071 27.0187 33.7413L27.1875 33.7563H31.875V38.4438L31.89 38.6126C31.9242 38.7999 32.0147 38.9724 32.1493 39.107C32.284 39.2417 32.4564 39.3321 32.6437 39.3663L32.8125 39.3813L32.9813 39.3663C33.1686 39.3321 33.341 39.2417 33.4757 39.107C33.6103 38.9724 33.7008 38.7999 33.735 38.6126L33.75 38.4438V33.7563H38.4375L38.6063 33.7413C38.7936 33.7071 38.966 33.6167 39.1007 33.482C39.2353 33.3474 39.3258 33.1749 39.36 32.9876L39.375 32.8188L39.36 32.6501C39.3258 32.4628 39.2353 32.2903 39.1007 32.1557C38.966 32.021 38.7936 31.9306 38.6063 31.8963L38.4375 31.8813H33.75V27.1938L33.735 27.0251C33.7008 26.8378 33.6103 26.6653 33.4757 26.5307C33.341 26.396 33.1686 26.3056 32.9813 26.2713L32.8125 26.2563ZM33.2812 8.44385H11.7188C10.8485 8.44385 10.0139 8.78955 9.39856 9.4049C8.7832 10.0203 8.4375 10.8549 8.4375 11.7251V13.1313H36.5625V11.7251C36.5625 10.8549 36.2168 10.0203 35.6014 9.4049C34.9861 8.78955 34.1515 8.44385 33.2812 8.44385Z" fill="black"/>
</svg>
