<svg width="325" height="35" viewBox="0 0 325 35" fill="none" xmlns="http://www.w3.org/2000/svg">
<path d="M213.471 0H207.253C204.505 0.169085 202.259 1.60882 201.611 4.57795C201.273 6.12656 201.086 7.82701 200.822 9.43233C199.478 17.5943 198.286 25.9809 197 33.9797H245.412C249.155 33.9797 251.725 32.9507 252.42 29.0862C252.742 27.2907 253.051 25.2571 253.36 23.2847C254.563 15.594 255.768 7.90355 257 0H213.471Z" fill="#B82126"/>
<path d="M238.449 20.3014C237.778 21.1566 235.893 21.3995 236.086 19.3554C236.246 17.6575 237.667 17.2968 239.207 17.5419C239.092 18.4706 238.961 19.6498 238.449 20.3016V20.3014ZM236.328 13.6788C236.264 14.1471 236.166 14.571 236.086 15.0189C236.855 14.7683 239.249 13.9994 239.479 15.3344C239.556 15.7781 239.424 16.2492 239.328 16.5959C237.163 16.3291 235.398 16.7971 234.934 18.8035C234.624 20.1473 234.969 21.4698 235.631 21.8391C236.907 22.5496 238.458 21.7354 238.995 20.6169C238.939 21.0042 238.886 21.3952 238.904 21.8784H240.025C240.037 20.4815 240.193 19.3508 240.358 18.0939C240.499 17.0236 240.764 15.9638 240.721 15.0191C240.625 12.8556 237.87 13.6208 236.328 13.6789V13.6788ZM247.569 20.9715C246.692 20.9959 246.256 20.2898 246.236 19.1189C246.201 17.0682 246.892 14.7898 248.296 14.5855C248.95 14.4903 249.423 14.6881 249.902 14.9009C249.463 17.2044 249.621 20.9142 247.569 20.9715ZM250.478 10.131C250.366 11.4047 250.217 12.6298 250.023 13.7969C246.828 12.481 244.868 15.5401 244.903 19.3159C244.91 20.0462 245.006 20.7704 245.357 21.2868C245.962 22.1772 247.695 22.3901 248.569 21.6418C248.738 21.4969 248.911 21.2335 249.024 21.0505C249.108 20.9128 249.242 20.5525 249.266 20.6561C249.22 21.0563 249.151 21.4269 249.145 21.8784H250.326C250.554 17.6281 251.258 13.9977 251.781 10.1309H250.478L250.478 10.131ZM217.119 20.3409C216.422 21.3015 214.708 21.2867 214.574 19.6707C214.515 18.9675 214.716 18.2302 214.816 17.5026C214.917 16.7662 214.989 16.0597 215.089 15.4132C215.775 14.3225 217.793 14.1909 217.997 16.0046C218.175 17.5793 217.696 19.5455 217.119 20.3409ZM218.149 13.6788C217.046 13.1399 215.702 13.7832 215.12 14.3952C215.122 14.422 215.106 14.4257 215.089 14.4278C215.099 14.4168 215.109 14.406 215.12 14.3952C215.12 14.3929 215.119 14.3907 215.119 14.3885C215.129 14.1252 215.2 13.9419 215.21 13.6788H214.089C213.622 17.7226 213.068 21.6534 212.483 25.5443H213.786C213.974 24.0288 214.099 22.4303 214.362 21.011C214.659 22.5037 216.602 22.2185 217.422 21.6418C219.113 20.4518 220.418 14.7878 218.149 13.6788ZM224.33 16.5171H221.27C221.367 15.6018 221.999 14.5957 222.997 14.5461C223.935 14.4993 224.607 14.9944 224.33 16.5171ZM223.088 13.5211C222.146 13.6155 221.35 13.9678 220.785 14.7431C220.091 15.6939 219.529 17.796 219.694 19.7102C219.929 22.4411 222.542 22.3433 224.633 21.6811C224.668 21.2019 224.758 20.7922 224.815 20.3409C223.953 20.7602 222.458 21.3454 221.573 20.6169C220.904 20.0668 220.9 18.6737 221.118 17.4631C222.523 17.405 223.983 17.4162 225.39 17.4631C225.48 16.605 225.735 15.6695 225.511 14.8221C225.217 13.7031 224.161 13.4136 223.088 13.5211ZM211.635 13.6788C211.599 13.6855 211.602 13.7413 211.604 13.7969C211.317 16.5902 210.929 19.2517 210.513 21.8784H211.816C212.129 19.0662 212.488 16.3135 212.937 13.6788H211.635ZM245.63 13.7181C244.479 12.9692 243.52 14.226 243.146 14.9796C243.252 14.5929 243.258 14.0753 243.358 13.6788H242.206C241.896 16.4943 241.522 19.2267 241.085 21.8784H242.418C242.427 20.7916 242.591 19.9878 242.721 18.9218C243 16.6461 243.409 14.1505 245.448 14.9009C245.516 14.5159 245.544 14.0794 245.63 13.7181ZM230.996 19.9466C230.876 19.5431 230.844 18.8763 230.874 18.3698C230.942 17.2306 231.261 15.8439 231.753 15.2162C232.433 14.3498 233.774 14.4931 234.844 14.9796C234.877 14.5105 234.949 14.0921 234.995 13.6394C233.241 13.2666 231.576 13.4985 230.693 14.7036C229.829 15.8836 229.262 18.5952 229.662 20.3014C230.131 22.298 232.233 22.4065 233.935 21.6418C234.01 21.2405 234.05 20.7931 234.117 20.3803C233.187 21.0089 231.409 21.3356 230.996 19.9466ZM230.269 13.6788C229.113 13.0718 228.205 14.0976 227.784 15.0586C227.879 14.6311 227.919 14.1304 227.996 13.6788H226.845C226.563 16.5189 226.148 19.1854 225.754 21.8784H227.057C227.239 20.2798 227.318 18.125 227.723 16.5959C228.047 15.374 228.894 14.333 230.117 14.9009C230.134 14.4501 230.233 14.106 230.269 13.6788ZM209.271 10.3675C209.085 11.9387 208.875 13.4793 208.665 15.0191C207.315 15.0375 205.937 15.1058 204.635 14.9794C204.881 13.4732 205.058 11.8761 205.302 10.3673H203.848C203.327 14.2106 202.853 18.1146 202.272 21.8785H203.757C203.99 19.9476 204.207 17.9971 204.514 16.1626C205.78 16.1219 207.297 16.0513 208.514 16.2019C208.263 18.1094 207.96 19.9488 207.726 21.8785H209.211C209.688 17.9789 210.19 14.1127 210.786 10.3676H209.271L209.271 10.3675ZM212.968 12.1019C213.227 11.8693 213.562 10.8089 213.18 10.3675C213.059 10.2277 212.856 10.1871 212.574 10.2493C212.312 10.3068 212.161 10.4225 212.059 10.604C211.894 10.8956 211.743 11.7752 211.998 12.1019C212.246 12.4201 212.802 12.2498 212.968 12.1019Z" fill="white"/>
<g clip-path="url(#clip0)">
<path d="M145.584 15.1841C145.565 16.5715 146.947 17.3457 147.988 17.8061C149.058 18.2784 149.418 18.5813 149.413 19.0037C149.406 19.6501 148.56 19.9354 147.769 19.9465C146.389 19.9659 145.586 19.6084 144.948 19.338L144.451 21.4488C145.091 21.7163 146.276 21.9497 147.505 21.96C150.391 21.96 152.278 20.6679 152.289 18.6647C152.3 16.1223 148.412 15.9815 148.439 14.8451C148.448 14.5006 148.81 14.1329 149.604 14.0394C149.998 13.9921 151.083 13.956 152.313 14.47L152.796 12.4278C152.134 12.2092 151.284 12 150.225 12C147.509 12 145.599 13.3096 145.584 15.1841ZM157.436 12.1759C156.909 12.1759 156.465 12.4547 156.267 12.8825L152.146 21.81H155.029L155.603 20.3715H159.126L159.459 21.81H162L159.782 12.1759H157.436ZM157.84 14.7784L158.672 18.3961H156.393L157.84 14.7784ZM142.088 12.176L139.816 21.8098H142.563L144.835 12.1757H142.088V12.176ZM138.024 12.1757L135.164 18.7332L134.007 13.1577C133.872 12.5353 133.335 12.1759 132.74 12.1759H128.065L128 12.4556C128.96 12.6445 130.05 12.9492 130.711 13.2753C131.115 13.4744 131.23 13.6485 131.363 14.1218L133.554 21.81H136.458L140.909 12.1759H138.024" fill="url(#paint0_linear)"/>
</g>
<path fill-rule="evenodd" clip-rule="evenodd" d="M17.095 0C26.5363 0 34.19 7.65376 34.19 17.095C34.19 26.5364 26.5363 34.19 17.095 34.19C7.65376 34.19 0 26.5364 0 17.095C0 7.65376 7.65376 0 17.095 0Z" fill="#0E0E11"/>
<path fill-rule="evenodd" clip-rule="evenodd" d="M12.0227 15.8651L6.77906 18.1249C6.77104 18.0345 6.7665 17.943 6.7665 17.8506C6.7665 16.1918 8.111 14.8473 9.76962 14.8473C10.6671 14.8473 11.4724 15.2412 12.0227 15.8651ZM9.76962 12.6013C12.244 12.6013 14.3181 14.3135 14.8727 16.6176L12.7572 17.5426L12.7567 17.5382L10.5922 18.4891L5.39997 20.7595C4.82503 19.8984 4.51892 18.8859 4.52051 17.8506C4.52051 14.9515 6.87054 12.6013 9.76962 12.6013ZM13.4376 21.6056C11.5582 23.3893 9.07166 23.5644 6.88697 22.2381L8.12142 20.3613C9.36455 21.1044 10.6135 20.9839 11.8682 19.9988L13.4376 21.6055V21.6056ZM15.575 20.3061L15.5616 10.3796H17.4423V20.0382C17.4423 20.1307 17.4538 20.2123 17.5754 20.2596L19.2114 20.8959L18.4743 22.8124L16.5578 22.0016C15.8311 21.694 15.5762 21.2485 15.5748 20.3061H15.575Z" fill="white"/>
<path fill-rule="evenodd" clip-rule="evenodd" d="M22.6562 20.1393C21.9513 19.5911 21.4973 18.7357 21.4973 17.7735C21.4973 16.9183 21.8563 16.1472 22.4313 15.6014L21.2166 13.6328C19.9955 14.6001 19.2114 16.0949 19.2114 17.7735C19.2114 19.5831 20.1217 21.1793 21.509 22.1312L22.6562 20.1393Z" fill="#2091C3"/>
<path fill-rule="evenodd" clip-rule="evenodd" d="M23.4796 14.954C23.8047 14.8371 24.1477 14.7775 24.4932 14.7777C25.7758 14.7777 26.8696 15.5843 27.2968 16.7175L29.6244 16.523C29.0625 14.2099 26.9791 12.4919 24.4932 12.4919C23.8126 12.4915 23.1384 12.623 22.5078 12.8793L23.4796 14.954Z" fill="#FAEC32"/>
<path fill-rule="evenodd" clip-rule="evenodd" d="M27.4853 17.9187C27.4095 19.5059 26.099 20.7694 24.4932 20.7694C24.2414 20.7694 23.9972 20.7378 23.7637 20.6794L22.8506 22.7934C23.3809 22.967 23.9353 23.0553 24.4933 23.0552C27.3374 23.0552 29.6552 20.8068 29.7693 17.9907L27.4853 17.9187Z" fill="#D0352A"/>
<path d="M76 24C79.866 24 83 20.866 83 17C83 13.134 79.866 10 76 10C72.134 10 69 13.134 69 17C69 20.866 72.134 24 76 24Z" fill="#EA001B"/>
<path d="M86 24C89.866 24 93 20.866 93 17C93 13.134 89.866 10 86 10C82.134 10 79 13.134 79 17C79 20.866 82.134 24 86 24Z" fill="#FFA200" fill-opacity="0.8"/>
<g clip-path="url(#clip1)">
<path d="M313.396 20.2088C313.396 19.781 313.213 19.5465 312.936 19.3792C312.655 19.2179 312.315 19.1959 311.85 19.1959H309.789V22.9631H310.692V21.5914H311.658C311.975 21.5914 312.175 21.6235 312.294 21.7588C312.455 21.9311 312.435 22.2647 312.435 22.4952V22.9601H313.312V22.2186C313.312 21.885 313.292 21.7177 313.172 21.5293C313.054 21.388 312.901 21.2802 312.728 21.2167L312.753 21.2057C312.998 21.1125 313.395 20.8089 313.395 20.2088H313.396ZM312.232 20.7508L312.195 20.7458C312.075 20.819 311.934 20.825 311.751 20.825H310.672V19.9844H311.773C311.934 19.9844 312.091 19.9844 312.217 20.0525C312.28 20.0832 312.332 20.1318 312.367 20.1923C312.402 20.2528 312.419 20.3223 312.414 20.3921C312.414 20.5535 312.351 20.6777 312.237 20.7518L312.232 20.7508ZM319.115 22.1555H317.383V22.9601H319.126C320.028 22.9601 320.529 22.5884 320.529 21.7808C320.529 21.4041 320.441 21.1797 320.279 21.0033C320.076 20.826 319.751 20.7418 319.304 20.7268L318.802 20.7057C318.662 20.7057 318.563 20.7058 318.459 20.6647C318.399 20.6461 318.348 20.6084 318.312 20.5576C318.276 20.5067 318.257 20.4454 318.259 20.3831C318.259 20.2629 318.28 20.1637 318.38 20.1066C318.491 20.0445 318.618 20.0153 318.745 20.0224H320.383V19.2199H318.583C317.644 19.2199 317.305 19.804 317.305 20.3421C317.305 21.5474 318.339 21.4842 319.184 21.5053C319.319 21.5053 319.424 21.5253 319.481 21.5824C319.544 21.6255 319.59 21.7237 319.59 21.8229C319.59 21.9271 319.543 22.0263 319.486 22.0634C319.409 22.1355 319.288 22.1565 319.116 22.1565L319.115 22.1555ZM292 1V14.4898L293.081 11.98H295.419L295.72 12.6012V11.98H298.449L299.05 13.3416L299.635 11.9911H308.323C308.715 11.9911 309.069 12.0682 309.33 12.3087V12.0001H311.72V12.3087C312.126 12.0792 312.633 12.0001 313.212 12.0001H316.691L317.016 12.6213V12.0001H319.578L319.916 12.6213V11.9951H322.4V17.2722H319.879L319.4 16.4676V17.2501H316.253L315.913 16.4095H315.13L314.771 17.2281H313.153C312.51 17.2281 312.03 17.0928 311.707 16.9105V17.2281H307.844V16.0498C307.844 15.8885 307.808 15.8885 307.709 15.8665H307.568V17.2491H300.101V16.6129L299.819 17.2491H298.264L297.993 16.6129V17.2331H294.982L294.642 16.3985H293.865L293.527 17.2331H291.997V33.0604H323.771V23.5632C323.411 23.7446 322.952 23.8027 322.471 23.8027H320.171V23.463C319.89 23.6825 319.41 23.8027 318.95 23.8027H311.649V22.6034C311.649 22.4421 311.622 22.4421 311.487 22.4421H311.388V23.8087H308.983V22.385C308.586 22.5683 308.121 22.5823 307.74 22.5683H307.459V23.7897H304.548L303.823 22.9641L303.06 23.7686H298.332V18.5186H303.154L303.848 19.3231L304.589 18.5186H307.808C308.184 18.5186 308.794 18.5616 309.066 18.8221V18.4985H311.972C312.244 18.4985 312.834 18.5616 313.183 18.8001V18.4825H317.54V18.8001C317.759 18.5807 318.224 18.4825 318.615 18.4825H321.14V18.8001C321.401 18.6027 321.761 18.4825 322.262 18.4825H323.833V1.001L292 1ZM320.262 20.9753C320.267 20.9863 320.267 20.9963 320.273 21.0023C320.289 21.0113 320.309 21.0113 320.32 21.0274L320.263 20.9803L320.262 20.9753ZM323.832 18.4765H323.921V19.2179H323.832V18.4765ZM323.878 21.0795V21.0684C323.842 21.0374 323.821 21.0073 323.779 20.9753C323.582 20.7719 323.257 20.6877 322.761 20.6777L322.276 20.6627C322.12 20.6627 322.021 20.6516 321.916 20.6216C321.857 20.6028 321.805 20.5652 321.769 20.5143C321.733 20.4635 321.715 20.4023 321.717 20.34C321.717 20.2198 321.758 20.1246 321.837 20.0675C321.936 20.0104 322.035 20.0004 322.197 20.0004H323.831V19.2179H322.12C321.195 19.2179 320.836 19.802 320.836 20.34C320.836 21.5393 321.879 21.4822 322.72 21.5033C322.861 21.5033 322.96 21.5183 323.017 21.5804C323.081 21.6235 323.122 21.7217 323.122 21.8209C323.121 21.8674 323.11 21.9132 323.089 21.9548C323.068 21.9964 323.038 22.0328 323.001 22.0613C322.938 22.1335 322.818 22.1545 322.642 22.1545H320.918V22.9631H322.637C323.199 22.9631 323.618 22.8068 323.842 22.4832H323.878C323.998 22.2998 324.061 22.0814 324.061 21.7848C324.061 21.4602 323.998 21.2628 323.878 21.0795ZM316.845 19.9794V19.2019H313.859V22.9851H316.845V22.2026H314.746V21.4462H316.793V20.6637H314.746V19.9854L316.845 19.9794ZM310.051 12.7355H310.963V16.4987H310.051V12.7355ZM309.534 13.7484L309.523 13.7594C309.523 13.3356 309.35 13.0912 309.069 12.9248C308.781 12.7575 308.444 12.7415 307.99 12.7415H305.934V16.5087H306.835V15.1261H307.796C308.114 15.1261 308.318 15.1671 308.449 15.2874C308.612 15.4707 308.59 15.7933 308.59 16.0178V16.4937H309.493V15.7573C309.493 15.4236 309.472 15.2563 309.345 15.0629C309.228 14.9237 309.077 14.8162 308.907 14.7503C309.1 14.665 309.264 14.5242 309.376 14.3457C309.489 14.1673 309.546 13.9593 309.54 13.7484H309.534ZM308.391 14.2764H308.375C308.25 14.3486 308.114 14.3536 307.932 14.3536H306.83V13.519H307.932C308.093 13.519 308.249 13.524 308.369 13.5871C308.49 13.6392 308.573 13.7594 308.573 13.9208C308.573 14.0821 308.51 14.2133 308.391 14.2764ZM313.27 13.519H314.11V12.7205H313.249C312.633 12.7205 312.179 12.8617 311.887 13.1603C311.506 13.5611 311.406 14.0831 311.406 14.6471C311.406 15.3315 311.568 15.7583 311.887 16.0769C312.195 16.3945 312.748 16.4947 313.181 16.4947H314.226L314.565 15.6541H316.422L316.772 16.4947H318.587V13.6763L320.289 16.4947H321.563V12.7365H320.644V15.3615L319.069 12.7415H317.706V16.2272L316.192 12.6794H314.851L313.593 15.6491H313.192C312.958 15.6491 312.707 15.608 312.566 15.4657C312.399 15.2683 312.321 14.9858 312.321 14.584C312.321 14.2033 312.425 13.8997 312.576 13.7434C312.754 13.5601 312.942 13.519 313.266 13.519H313.27ZM315.498 13.3787L316.114 14.8706V14.8756H314.872L315.498 13.3787ZM295.178 15.6531L295.518 16.4937H297.344V13.551L298.644 16.4937H299.421L300.72 13.551L300.741 16.4937H301.664V12.7415H300.172L299.097 15.2824L297.923 12.7365H296.468V16.2953L294.944 12.7365H293.613L292.017 16.4947H292.976L293.321 15.6601H295.179L295.178 15.6531ZM294.259 13.3787L294.876 14.8706L294.871 14.8756H293.649L294.259 13.3787ZM307.837 19.1959H304.979L303.841 20.4272L302.74 19.1959H299.145V22.9631H302.688L303.83 21.7167L304.932 22.9591H306.668V21.7057H307.79C308.589 21.7057 309.35 21.4862 309.35 20.4432L309.345 20.4382C309.345 19.3952 308.548 19.1959 307.837 19.1959ZM302.249 22.1766H300.041V21.4301H302.002V20.6637H300.041V19.9854H302.285L303.267 21.0805L302.244 22.1816L302.249 22.1766ZM305.775 22.6204L304.398 21.0855L305.775 19.6096V22.6204ZM307.847 20.9392H306.668V19.9784H307.847C308.171 19.9784 308.412 20.1096 308.412 20.4382C308.412 20.7669 308.214 20.9392 307.847 20.9392ZM305.318 13.519V12.7365H302.327V16.4997H305.318V15.7222H303.219V14.9698H305.259V14.1973H303.219V13.519H305.318Z" fill="url(#paint1_linear)"/>
</g>
<defs>
<linearGradient id="paint0_linear" x1="143.631" y1="22.1598" x2="143.893" y2="11.9293" gradientUnits="userSpaceOnUse">
<stop stop-color="#222357"/>
<stop offset="1" stop-color="#254AA5"/>
</linearGradient>
<linearGradient id="paint1_linear" x1="308.029" y1="1" x2="308.029" y2="33.0604" gradientUnits="userSpaceOnUse">
<stop stop-color="#2BA9E1" stop-opacity="0"/>
<stop offset="0.0885417" stop-color="#2091C3"/>
</linearGradient>
<clipPath id="clip0">
<rect width="34" height="10" fill="white" transform="translate(128 12)"/>
</clipPath>
<clipPath id="clip1">
<rect width="32.0614" height="32.0614" fill="white" transform="translate(292 1)"/>
</clipPath>
</defs>
</svg>
