<svg width="47" height="47" viewBox="0 0 47 47" fill="none" xmlns="http://www.w3.org/2000/svg">
<path d="M17.1357 7.83325C18.564 7.83325 19.9338 8.40064 20.9438 9.4106C21.9538 10.4206 22.5212 11.7904 22.5212 13.2187V33.7812C22.5212 34.4884 22.3819 35.1887 22.1112 35.8421C21.8406 36.4955 21.4439 37.0892 20.9438 37.5892C20.4437 38.0893 19.85 38.486 19.1967 38.7566C18.5433 39.0273 17.843 39.1666 17.1357 39.1666H9.30241C8.59519 39.1666 7.89489 39.0273 7.2415 38.7566C6.58811 38.486 5.99443 38.0893 5.49434 37.5892C4.99426 37.0892 4.59758 36.4955 4.32693 35.8421C4.05629 35.1887 3.91699 34.4884 3.91699 33.7812V13.2187C3.91699 11.7904 4.48438 10.4206 5.49434 9.4106C6.50431 8.40064 7.87411 7.83325 9.30241 7.83325H17.1357ZM17.1357 10.7708H9.30241C7.95116 10.7708 6.85449 11.8674 6.85449 13.2187V33.7812C6.85449 35.1324 7.95116 36.2291 9.30241 36.2291H17.1357C18.487 36.2291 19.5837 35.1324 19.5837 33.7812V13.2187C19.5837 11.8674 18.487 10.7708 17.1357 10.7708ZM37.6982 7.83325C39.1265 7.83325 40.4963 8.40064 41.5063 9.4106C42.5163 10.4206 43.0837 11.7904 43.0837 13.2187V33.7812C43.0837 34.4884 42.9444 35.1887 42.6737 35.8421C42.4031 36.4955 42.0064 37.0892 41.5063 37.5892C41.0062 38.0893 40.4125 38.486 39.7592 38.7566C39.1058 39.0273 38.4055 39.1666 37.6982 39.1666H29.8649C29.1577 39.1666 28.4574 39.0273 27.804 38.7566C27.1506 38.486 26.5569 38.0893 26.0568 37.5892C25.5568 37.0892 25.1601 36.4955 24.8894 35.8421C24.6188 35.1887 24.4795 34.4884 24.4795 33.7812V13.2187C24.4795 11.7904 25.0469 10.4206 26.0568 9.4106C27.0668 8.40064 28.4366 7.83325 29.8649 7.83325H37.6982ZM37.6982 10.7708H29.8649C28.5137 10.7708 27.417 11.8674 27.417 13.2187V33.7812C27.417 35.1324 28.5137 36.2291 29.8649 36.2291H37.6982C39.0495 36.2291 40.1462 35.1324 40.1462 33.7812V13.2187C40.1462 11.8674 39.0495 10.7708 37.6982 10.7708ZM11.7503 17.6249V29.3749C11.7503 29.7645 11.9051 30.138 12.1805 30.4135C12.456 30.6889 12.8295 30.8437 13.2191 30.8437C13.6086 30.8437 13.9822 30.6889 14.2576 30.4135C14.5331 30.138 14.6878 29.7645 14.6878 29.3749V17.6249C14.6878 17.2354 14.5331 16.8618 14.2576 16.5864C13.9822 16.3109 13.6086 16.1562 13.2191 16.1562C12.8295 16.1562 12.456 16.3109 12.1805 16.5864C11.9051 16.8618 11.7503 17.2354 11.7503 17.6249V17.6249ZM34.2712 19.0937V22.0312H31.8232C31.4337 22.0312 31.0601 22.1859 30.7847 22.4614C30.5092 22.7368 30.3545 23.1104 30.3545 23.4999V29.3749C30.3545 30.1857 31.0125 30.8437 31.8232 30.8437H35.7399C36.1294 30.8437 36.503 30.6889 36.7785 30.4135C37.0539 30.138 37.2087 29.7645 37.2087 29.3749C37.2087 28.9854 37.0539 28.6118 36.7785 28.3364C36.503 28.0609 36.1294 27.9062 35.7399 27.9062H33.292V24.9687H35.7399C36.1294 24.9687 36.503 24.8139 36.7785 24.5385C37.0539 24.263 37.2087 23.8895 37.2087 23.4999V17.6249C37.2087 17.2354 37.0539 16.8618 36.7785 16.5864C36.503 16.3109 36.1294 16.1562 35.7399 16.1562H31.8232C31.4337 16.1562 31.0601 16.3109 30.7847 16.5864C30.5092 16.8618 30.3545 17.2354 30.3545 17.6249C30.3545 18.0145 30.5092 18.388 30.7847 18.6635C31.0601 18.9389 31.4337 19.0937 31.8232 19.0937H34.2712Z" fill="black"/>
</svg>
