<svg width="457" height="265" viewBox="0 0 457 265" fill="none" xmlns="http://www.w3.org/2000/svg">
<rect width="457" height="265" rx="20" fill="#FF9A4C"/>
<path d="M31.88 193.16C30.4613 193.16 29.4 192.739 28.696 191.896C27.992 191.043 27.64 189.795 27.64 188.152C27.64 186.552 27.9973 185.336 28.712 184.504C29.4267 183.661 30.4827 183.24 31.88 183.24H32.056C33.432 183.24 34.4667 183.656 35.16 184.488C35.864 185.32 36.216 186.541 36.216 188.152C36.216 189.795 35.864 191.043 35.16 191.896C34.4667 192.739 33.432 193.16 32.056 193.16H31.88ZM31.88 192.504H32.056C33.1013 192.504 33.912 192.157 34.488 191.464C35.064 190.771 35.352 189.667 35.352 188.152C35.352 186.669 35.064 185.587 34.488 184.904C33.912 184.221 33.1013 183.88 32.056 183.88H31.88C30.8133 183.88 29.9813 184.221 29.384 184.904C28.7973 185.576 28.504 186.659 28.504 188.152C28.504 189.688 28.8027 190.797 29.4 191.48C29.9973 192.163 30.824 192.504 31.88 192.504ZM42.6994 193.16C41.2807 193.16 40.2194 192.739 39.5154 191.896C38.8114 191.043 38.4594 189.795 38.4594 188.152C38.4594 186.552 38.8167 185.336 39.5314 184.504C40.246 183.661 41.302 183.24 42.6994 183.24H42.8754C44.2514 183.24 45.286 183.656 45.9794 184.488C46.6834 185.32 47.0354 186.541 47.0354 188.152C47.0354 189.795 46.6834 191.043 45.9794 191.896C45.286 192.739 44.2514 193.16 42.8754 193.16H42.6994ZM42.6994 192.504H42.8754C43.9207 192.504 44.7314 192.157 45.3074 191.464C45.8834 190.771 46.1714 189.667 46.1714 188.152C46.1714 186.669 45.8834 185.587 45.3074 184.904C44.7314 184.221 43.9207 183.88 42.8754 183.88H42.6994C41.6327 183.88 40.8007 184.221 40.2034 184.904C39.6167 185.576 39.3234 186.659 39.3234 188.152C39.3234 189.688 39.622 190.797 40.2194 191.48C40.8167 192.163 41.6434 192.504 42.6994 192.504ZM53.5188 193.16C52.1001 193.16 51.0388 192.739 50.3348 191.896C49.6308 191.043 49.2788 189.795 49.2788 188.152C49.2788 186.552 49.6361 185.336 50.3508 184.504C51.0654 183.661 52.1214 183.24 53.5188 183.24H53.6948C55.0708 183.24 56.1054 183.656 56.7988 184.488C57.5028 185.32 57.8548 186.541 57.8548 188.152C57.8548 189.795 57.5028 191.043 56.7988 191.896C56.1054 192.739 55.0708 193.16 53.6948 193.16H53.5188ZM53.5188 192.504H53.6948C54.7401 192.504 55.5508 192.157 56.1268 191.464C56.7028 190.771 56.9908 189.667 56.9908 188.152C56.9908 186.669 56.7028 185.587 56.1268 184.904C55.5508 184.221 54.7401 183.88 53.6948 183.88H53.5188C52.4521 183.88 51.6201 184.221 51.0228 184.904C50.4361 185.576 50.1428 186.659 50.1428 188.152C50.1428 189.688 50.4414 190.797 51.0388 191.48C51.6361 192.163 52.4628 192.504 53.5188 192.504ZM64.3381 193.16C62.9195 193.16 61.8581 192.739 61.1541 191.896C60.4501 191.043 60.0981 189.795 60.0981 188.152C60.0981 186.552 60.4555 185.336 61.1701 184.504C61.8848 183.661 62.9408 183.24 64.3381 183.24H64.5141C65.8901 183.24 66.9248 183.656 67.6181 184.488C68.3221 185.32 68.6741 186.541 68.6741 188.152C68.6741 189.795 68.3221 191.043 67.6181 191.896C66.9248 192.739 65.8901 193.16 64.5141 193.16H64.3381ZM64.3381 192.504H64.5141C65.5595 192.504 66.3701 192.157 66.9461 191.464C67.5221 190.771 67.8101 189.667 67.8101 188.152C67.8101 186.669 67.5221 185.587 66.9461 184.904C66.3701 184.221 65.5595 183.88 64.5141 183.88H64.3381C63.2715 183.88 62.4395 184.221 61.8421 184.904C61.2555 185.576 60.9621 186.659 60.9621 188.152C60.9621 189.688 61.2608 190.797 61.8581 191.48C62.4555 192.163 63.2821 192.504 64.3381 192.504ZM79.9612 193.16C78.5426 193.16 77.4812 192.739 76.7772 191.896C76.0732 191.043 75.7212 189.795 75.7212 188.152C75.7212 186.552 76.0786 185.336 76.7932 184.504C77.5079 183.661 78.5639 183.24 79.9612 183.24H80.1372C81.5132 183.24 82.5479 183.656 83.2413 184.488C83.9452 185.32 84.2972 186.541 84.2972 188.152C84.2972 189.795 83.9452 191.043 83.2413 191.896C82.5479 192.739 81.5132 193.16 80.1372 193.16H79.9612ZM79.9612 192.504H80.1372C81.1826 192.504 81.9932 192.157 82.5692 191.464C83.1452 190.771 83.4332 189.667 83.4332 188.152C83.4332 186.669 83.1452 185.587 82.5692 184.904C81.9932 184.221 81.1826 183.88 80.1372 183.88H79.9612C78.8946 183.88 78.0626 184.221 77.4652 184.904C76.8786 185.576 76.5852 186.659 76.5852 188.152C76.5852 189.688 76.8839 190.797 77.4812 191.48C78.0786 192.163 78.9052 192.504 79.9612 192.504ZM90.7806 193.16C89.362 193.16 88.3006 192.739 87.5966 191.896C86.8926 191.043 86.5406 189.795 86.5406 188.152C86.5406 186.552 86.898 185.336 87.6126 184.504C88.3273 183.661 89.3833 183.24 90.7806 183.24H90.9566C92.3326 183.24 93.3673 183.656 94.0606 184.488C94.7646 185.32 95.1166 186.541 95.1166 188.152C95.1166 189.795 94.7646 191.043 94.0606 191.896C93.3673 192.739 92.3326 193.16 90.9566 193.16H90.7806ZM90.7806 192.504H90.9566C92.002 192.504 92.8126 192.157 93.3886 191.464C93.9646 190.771 94.2526 189.667 94.2526 188.152C94.2526 186.669 93.9646 185.587 93.3886 184.904C92.8126 184.221 92.002 183.88 90.9566 183.88H90.7806C89.714 183.88 88.882 184.221 88.2846 184.904C87.698 185.576 87.4046 186.659 87.4046 188.152C87.4046 189.688 87.7033 190.797 88.3006 191.48C88.898 192.163 89.7246 192.504 90.7806 192.504ZM101.6 193.16C100.181 193.16 99.12 192.739 98.416 191.896C97.712 191.043 97.36 189.795 97.36 188.152C97.36 186.552 97.7173 185.336 98.432 184.504C99.1467 183.661 100.203 183.24 101.6 183.24H101.776C103.152 183.24 104.187 183.656 104.88 184.488C105.584 185.32 105.936 186.541 105.936 188.152C105.936 189.795 105.584 191.043 104.88 191.896C104.187 192.739 103.152 193.16 101.776 193.16H101.6ZM101.6 192.504H101.776C102.821 192.504 103.632 192.157 104.208 191.464C104.784 190.771 105.072 189.667 105.072 188.152C105.072 186.669 104.784 185.587 104.208 184.904C103.632 184.221 102.821 183.88 101.776 183.88H101.6C100.533 183.88 99.7013 184.221 99.104 184.904C98.5173 185.576 98.224 186.659 98.224 188.152C98.224 189.688 98.5227 190.797 99.12 191.48C99.7173 192.163 100.544 192.504 101.6 192.504ZM112.419 193.16C111.001 193.16 109.939 192.739 109.235 191.896C108.531 191.043 108.179 189.795 108.179 188.152C108.179 186.552 108.537 185.336 109.251 184.504C109.966 183.661 111.022 183.24 112.419 183.24H112.595C113.971 183.24 115.006 183.656 115.699 184.488C116.403 185.32 116.755 186.541 116.755 188.152C116.755 189.795 116.403 191.043 115.699 191.896C115.006 192.739 113.971 193.16 112.595 193.16H112.419ZM112.419 192.504H112.595C113.641 192.504 114.451 192.157 115.027 191.464C115.603 190.771 115.891 189.667 115.891 188.152C115.891 186.669 115.603 185.587 115.027 184.904C114.451 184.221 113.641 183.88 112.595 183.88H112.419C111.353 183.88 110.521 184.221 109.923 184.904C109.337 185.576 109.043 186.659 109.043 188.152C109.043 189.688 109.342 190.797 109.939 191.48C110.537 192.163 111.363 192.504 112.419 192.504ZM128.042 193.16C126.624 193.16 125.562 192.739 124.858 191.896C124.154 191.043 123.802 189.795 123.802 188.152C123.802 186.552 124.16 185.336 124.874 184.504C125.589 183.661 126.645 183.24 128.042 183.24H128.218C129.594 183.24 130.629 183.656 131.322 184.488C132.026 185.32 132.378 186.541 132.378 188.152C132.378 189.795 132.026 191.043 131.322 191.896C130.629 192.739 129.594 193.16 128.218 193.16H128.042ZM128.042 192.504H128.218C129.264 192.504 130.074 192.157 130.65 191.464C131.226 190.771 131.514 189.667 131.514 188.152C131.514 186.669 131.226 185.587 130.65 184.904C130.074 184.221 129.264 183.88 128.218 183.88H128.042C126.976 183.88 126.144 184.221 125.546 184.904C124.96 185.576 124.666 186.659 124.666 188.152C124.666 189.688 124.965 190.797 125.562 191.48C126.16 192.163 126.986 192.504 128.042 192.504ZM138.862 193.16C137.443 193.16 136.382 192.739 135.678 191.896C134.974 191.043 134.622 189.795 134.622 188.152C134.622 186.552 134.979 185.336 135.694 184.504C136.409 183.661 137.465 183.24 138.862 183.24H139.038C140.414 183.24 141.449 183.656 142.142 184.488C142.846 185.32 143.198 186.541 143.198 188.152C143.198 189.795 142.846 191.043 142.142 191.896C141.449 192.739 140.414 193.16 139.038 193.16H138.862ZM138.862 192.504H139.038C140.083 192.504 140.894 192.157 141.47 191.464C142.046 190.771 142.334 189.667 142.334 188.152C142.334 186.669 142.046 185.587 141.47 184.904C140.894 184.221 140.083 183.88 139.038 183.88H138.862C137.795 183.88 136.963 184.221 136.366 184.904C135.779 185.576 135.486 186.659 135.486 188.152C135.486 189.688 135.785 190.797 136.382 191.48C136.979 192.163 137.806 192.504 138.862 192.504ZM149.681 193.16C148.263 193.16 147.201 192.739 146.497 191.896C145.793 191.043 145.441 189.795 145.441 188.152C145.441 186.552 145.799 185.336 146.513 184.504C147.228 183.661 148.284 183.24 149.681 183.24H149.857C151.233 183.24 152.268 183.656 152.961 184.488C153.665 185.32 154.017 186.541 154.017 188.152C154.017 189.795 153.665 191.043 152.961 191.896C152.268 192.739 151.233 193.16 149.857 193.16H149.681ZM149.681 192.504H149.857C150.903 192.504 151.713 192.157 152.289 191.464C152.865 190.771 153.153 189.667 153.153 188.152C153.153 186.669 152.865 185.587 152.289 184.904C151.713 184.221 150.903 183.88 149.857 183.88H149.681C148.615 183.88 147.783 184.221 147.185 184.904C146.599 185.576 146.305 186.659 146.305 188.152C146.305 189.688 146.604 190.797 147.201 191.48C147.799 192.163 148.625 192.504 149.681 192.504ZM160.501 193.16C159.082 193.16 158.021 192.739 157.317 191.896C156.613 191.043 156.261 189.795 156.261 188.152C156.261 186.552 156.618 185.336 157.333 184.504C158.047 183.661 159.103 183.24 160.501 183.24H160.677C162.053 183.24 163.087 183.656 163.781 184.488C164.485 185.32 164.837 186.541 164.837 188.152C164.837 189.795 164.485 191.043 163.781 191.896C163.087 192.739 162.053 193.16 160.677 193.16H160.501ZM160.501 192.504H160.677C161.722 192.504 162.533 192.157 163.109 191.464C163.685 190.771 163.973 189.667 163.973 188.152C163.973 186.669 163.685 185.587 163.109 184.904C162.533 184.221 161.722 183.88 160.677 183.88H160.501C159.434 183.88 158.602 184.221 158.005 184.904C157.418 185.576 157.125 186.659 157.125 188.152C157.125 189.688 157.423 190.797 158.021 191.48C158.618 192.163 159.445 192.504 160.501 192.504ZM176.124 193.16C174.705 193.16 173.644 192.739 172.94 191.896C172.236 191.043 171.884 189.795 171.884 188.152C171.884 186.552 172.241 185.336 172.956 184.504C173.67 183.661 174.726 183.24 176.124 183.24H176.3C177.676 183.24 178.71 183.656 179.404 184.488C180.108 185.32 180.46 186.541 180.46 188.152C180.46 189.795 180.108 191.043 179.404 191.896C178.71 192.739 177.676 193.16 176.3 193.16H176.124ZM176.124 192.504H176.3C177.345 192.504 178.156 192.157 178.732 191.464C179.308 190.771 179.596 189.667 179.596 188.152C179.596 186.669 179.308 185.587 178.732 184.904C178.156 184.221 177.345 183.88 176.3 183.88H176.124C175.057 183.88 174.225 184.221 173.628 184.904C173.041 185.576 172.748 186.659 172.748 188.152C172.748 189.688 173.046 190.797 173.644 191.48C174.241 192.163 175.068 192.504 176.124 192.504ZM186.943 193.16C185.524 193.16 184.463 192.739 183.759 191.896C183.055 191.043 182.703 189.795 182.703 188.152C182.703 186.552 183.06 185.336 183.775 184.504C184.49 183.661 185.546 183.24 186.943 183.24H187.119C188.495 183.24 189.53 183.656 190.223 184.488C190.927 185.32 191.279 186.541 191.279 188.152C191.279 189.795 190.927 191.043 190.223 191.896C189.53 192.739 188.495 193.16 187.119 193.16H186.943ZM186.943 192.504H187.119C188.164 192.504 188.975 192.157 189.551 191.464C190.127 190.771 190.415 189.667 190.415 188.152C190.415 186.669 190.127 185.587 189.551 184.904C188.975 184.221 188.164 183.88 187.119 183.88H186.943C185.876 183.88 185.044 184.221 184.447 184.904C183.86 185.576 183.567 186.659 183.567 188.152C183.567 189.688 183.866 190.797 184.463 191.48C185.06 192.163 185.887 192.504 186.943 192.504ZM197.762 193.16C196.344 193.16 195.282 192.739 194.578 191.896C193.874 191.043 193.522 189.795 193.522 188.152C193.522 186.552 193.88 185.336 194.594 184.504C195.309 183.661 196.365 183.24 197.762 183.24H197.938C199.314 183.24 200.349 183.656 201.042 184.488C201.746 185.32 202.098 186.541 202.098 188.152C202.098 189.795 201.746 191.043 201.042 191.896C200.349 192.739 199.314 193.16 197.938 193.16H197.762ZM197.762 192.504H197.938C198.984 192.504 199.794 192.157 200.37 191.464C200.946 190.771 201.234 189.667 201.234 188.152C201.234 186.669 200.946 185.587 200.37 184.904C199.794 184.221 198.984 183.88 197.938 183.88H197.762C196.696 183.88 195.864 184.221 195.266 184.904C194.68 185.576 194.386 186.659 194.386 188.152C194.386 189.688 194.685 190.797 195.282 191.48C195.88 192.163 196.706 192.504 197.762 192.504ZM208.582 193.16C207.163 193.16 206.102 192.739 205.398 191.896C204.694 191.043 204.342 189.795 204.342 188.152C204.342 186.552 204.699 185.336 205.414 184.504C206.129 183.661 207.185 183.24 208.582 183.24H208.758C210.134 183.24 211.169 183.656 211.862 184.488C212.566 185.32 212.918 186.541 212.918 188.152C212.918 189.795 212.566 191.043 211.862 191.896C211.169 192.739 210.134 193.16 208.758 193.16H208.582ZM208.582 192.504H208.758C209.803 192.504 210.614 192.157 211.19 191.464C211.766 190.771 212.054 189.667 212.054 188.152C212.054 186.669 211.766 185.587 211.19 184.904C210.614 184.221 209.803 183.88 208.758 183.88H208.582C207.515 183.88 206.683 184.221 206.086 184.904C205.499 185.576 205.206 186.659 205.206 188.152C205.206 189.688 205.505 190.797 206.102 191.48C206.699 192.163 207.526 192.504 208.582 192.504Z" fill="black"/>
<path d="M27.16 242C27.2773 242 27.448 241.925 27.672 241.776C27.896 241.627 28.1413 241.387 28.408 241.056C28.7813 240.587 29.1547 240.117 29.528 239.648C29.912 239.179 30.2907 238.709 30.664 238.24C30.2587 237.771 29.9387 237.403 29.704 237.136C29.4693 236.869 29.2827 236.656 29.144 236.496C29.0053 236.336 28.872 236.187 28.744 236.048C28.6267 235.899 28.4773 235.717 28.296 235.504C27.9973 235.152 27.752 234.901 27.56 234.752C27.368 234.603 27.2347 234.523 27.16 234.512H28.792C28.7173 234.523 28.7013 234.603 28.744 234.752C28.7973 234.901 28.9733 235.152 29.272 235.504C29.6347 235.899 29.992 236.293 30.344 236.688C30.696 237.083 31.0533 237.483 31.416 237.888H31.448C31.672 237.643 31.9227 237.365 32.2 237.056C32.4773 236.747 32.7387 236.448 32.984 236.16C33.24 235.872 33.432 235.643 33.56 235.472C33.816 235.131 33.9707 234.885 34.024 234.736C34.088 234.587 34.0933 234.512 34.04 234.512H35.72C35.6133 234.512 35.448 234.587 35.224 234.736C35.0107 234.875 34.7653 235.115 34.488 235.456C34.296 235.701 34.056 235.995 33.768 236.336C33.48 236.667 33.1867 237.003 32.888 237.344C32.6 237.685 32.3387 237.984 32.104 238.24C32.3387 238.496 32.6053 238.795 32.904 239.136C33.2133 239.477 33.5173 239.813 33.816 240.144C34.1147 240.475 34.3653 240.763 34.568 241.008C34.8773 241.371 35.128 241.627 35.32 241.776C35.5227 241.925 35.656 242 35.72 242H34.088C34.1627 242 34.1733 241.925 34.12 241.776C34.0773 241.627 33.9067 241.371 33.608 241.008C33.4907 240.859 33.2987 240.64 33.032 240.352C32.776 240.064 32.4987 239.755 32.2 239.424C31.9013 239.093 31.6293 238.795 31.384 238.528H31.352C31.1387 238.784 30.8987 239.077 30.632 239.408C30.3653 239.739 30.1147 240.053 29.88 240.352C29.6453 240.64 29.464 240.869 29.336 241.04C29.0693 241.381 28.9093 241.627 28.856 241.776C28.8027 241.925 28.8027 242 28.856 242H27.16ZM36.035 242C36.1523 242 36.323 241.925 36.547 241.776C36.771 241.627 37.0163 241.387 37.283 241.056C37.6563 240.587 38.0297 240.117 38.403 239.648C38.787 239.179 39.1657 238.709 39.539 238.24C39.1337 237.771 38.8137 237.403 38.579 237.136C38.3443 236.869 38.1577 236.656 38.019 236.496C37.8803 236.336 37.747 236.187 37.619 236.048C37.5017 235.899 37.3523 235.717 37.171 235.504C36.8723 235.152 36.627 234.901 36.435 234.752C36.243 234.603 36.1097 234.523 36.035 234.512H37.667C37.5923 234.523 37.5763 234.603 37.619 234.752C37.6723 234.901 37.8483 235.152 38.147 235.504C38.5097 235.899 38.867 236.293 39.219 236.688C39.571 237.083 39.9283 237.483 40.291 237.888H40.323C40.547 237.643 40.7977 237.365 41.075 237.056C41.3523 236.747 41.6137 236.448 41.859 236.16C42.115 235.872 42.307 235.643 42.435 235.472C42.691 235.131 42.8457 234.885 42.899 234.736C42.963 234.587 42.9683 234.512 42.915 234.512H44.595C44.4883 234.512 44.323 234.587 44.099 234.736C43.8857 234.875 43.6403 235.115 43.363 235.456C43.171 235.701 42.931 235.995 42.643 236.336C42.355 236.667 42.0617 237.003 41.763 237.344C41.475 237.685 41.2137 237.984 40.979 238.24C41.2137 238.496 41.4803 238.795 41.779 239.136C42.0883 239.477 42.3923 239.813 42.691 240.144C42.9897 240.475 43.2403 240.763 43.443 241.008C43.7523 241.371 44.003 241.627 44.195 241.776C44.3977 241.925 44.531 242 44.595 242H42.963C43.0377 242 43.0483 241.925 42.995 241.776C42.9523 241.627 42.7817 241.371 42.483 241.008C42.3657 240.859 42.1737 240.64 41.907 240.352C41.651 240.064 41.3737 239.755 41.075 239.424C40.7763 239.093 40.5043 238.795 40.259 238.528H40.227C40.0137 238.784 39.7737 239.077 39.507 239.408C39.2403 239.739 38.9897 240.053 38.755 240.352C38.5203 240.64 38.339 240.869 38.211 241.04C37.9443 241.381 37.7843 241.627 37.731 241.776C37.6777 241.925 37.6777 242 37.731 242H36.035ZM45.55 242.96L49.774 230.992H50.43L46.19 242.96H45.55ZM51.3944 242C51.5117 242 51.6824 241.925 51.9064 241.776C52.1304 241.627 52.3757 241.387 52.6424 241.056C53.0157 240.587 53.389 240.117 53.7624 239.648C54.1464 239.179 54.525 238.709 54.8984 238.24C54.493 237.771 54.173 237.403 53.9384 237.136C53.7037 236.869 53.517 236.656 53.3784 236.496C53.2397 236.336 53.1064 236.187 52.9784 236.048C52.861 235.899 52.7117 235.717 52.5304 235.504C52.2317 235.152 51.9864 234.901 51.7944 234.752C51.6024 234.603 51.469 234.523 51.3944 234.512H53.0264C52.9517 234.523 52.9357 234.603 52.9784 234.752C53.0317 234.901 53.2077 235.152 53.5064 235.504C53.869 235.899 54.2264 236.293 54.5784 236.688C54.9304 237.083 55.2877 237.483 55.6504 237.888H55.6824C55.9064 237.643 56.157 237.365 56.4344 237.056C56.7117 236.747 56.973 236.448 57.2184 236.16C57.4744 235.872 57.6664 235.643 57.7944 235.472C58.0504 235.131 58.205 234.885 58.2584 234.736C58.3224 234.587 58.3277 234.512 58.2744 234.512H59.9544C59.8477 234.512 59.6824 234.587 59.4584 234.736C59.245 234.875 58.9997 235.115 58.7224 235.456C58.5304 235.701 58.2904 235.995 58.0024 236.336C57.7144 236.667 57.421 237.003 57.1224 237.344C56.8344 237.685 56.573 237.984 56.3384 238.24C56.573 238.496 56.8397 238.795 57.1384 239.136C57.4477 239.477 57.7517 239.813 58.0504 240.144C58.349 240.475 58.5997 240.763 58.8024 241.008C59.1117 241.371 59.3624 241.627 59.5544 241.776C59.757 241.925 59.8904 242 59.9544 242H58.3224C58.397 242 58.4077 241.925 58.3544 241.776C58.3117 241.627 58.141 241.371 57.8424 241.008C57.725 240.859 57.533 240.64 57.2664 240.352C57.0104 240.064 56.733 239.755 56.4344 239.424C56.1357 239.093 55.8637 238.795 55.6184 238.528H55.5864C55.373 238.784 55.133 239.077 54.8664 239.408C54.5997 239.739 54.349 240.053 54.1144 240.352C53.8797 240.64 53.6984 240.869 53.5704 241.04C53.3037 241.381 53.1437 241.627 53.0904 241.776C53.037 241.925 53.037 242 53.0904 242H51.3944ZM60.2694 242C60.3867 242 60.5574 241.925 60.7814 241.776C61.0054 241.627 61.2507 241.387 61.5174 241.056C61.8907 240.587 62.264 240.117 62.6374 239.648C63.0214 239.179 63.4 238.709 63.7734 238.24C63.368 237.771 63.048 237.403 62.8134 237.136C62.5787 236.869 62.392 236.656 62.2534 236.496C62.1147 236.336 61.9814 236.187 61.8534 236.048C61.736 235.899 61.5867 235.717 61.4054 235.504C61.1067 235.152 60.8614 234.901 60.6694 234.752C60.4774 234.603 60.344 234.523 60.2694 234.512H61.9014C61.8267 234.523 61.8107 234.603 61.8534 234.752C61.9067 234.901 62.0827 235.152 62.3814 235.504C62.744 235.899 63.1014 236.293 63.4534 236.688C63.8054 237.083 64.1627 237.483 64.5254 237.888H64.5574C64.7814 237.643 65.032 237.365 65.3094 237.056C65.5867 236.747 65.848 236.448 66.0934 236.16C66.3494 235.872 66.5414 235.643 66.6694 235.472C66.9254 235.131 67.08 234.885 67.1334 234.736C67.1974 234.587 67.2027 234.512 67.1494 234.512H68.8294C68.7227 234.512 68.5574 234.587 68.3334 234.736C68.12 234.875 67.8747 235.115 67.5974 235.456C67.4054 235.701 67.1654 235.995 66.8774 236.336C66.5894 236.667 66.296 237.003 65.9974 237.344C65.7094 237.685 65.448 237.984 65.2134 238.24C65.448 238.496 65.7147 238.795 66.0134 239.136C66.3227 239.477 66.6267 239.813 66.9254 240.144C67.224 240.475 67.4747 240.763 67.6774 241.008C67.9867 241.371 68.2374 241.627 68.4294 241.776C68.632 241.925 68.7654 242 68.8294 242H67.1974C67.272 242 67.2827 241.925 67.2294 241.776C67.1867 241.627 67.016 241.371 66.7174 241.008C66.6 240.859 66.408 240.64 66.1414 240.352C65.8854 240.064 65.608 239.755 65.3094 239.424C65.0107 239.093 64.7387 238.795 64.4934 238.528H64.4614C64.248 238.784 64.008 239.077 63.7414 239.408C63.4747 239.739 63.224 240.053 62.9894 240.352C62.7547 240.64 62.5734 240.869 62.4454 241.04C62.1787 241.381 62.0187 241.627 61.9654 241.776C61.912 241.925 61.912 242 61.9654 242H60.2694Z" fill="black"/>
<path d="M98.16 242C98.2773 242 98.448 241.925 98.672 241.776C98.896 241.627 99.1413 241.387 99.408 241.056C99.7813 240.587 100.155 240.117 100.528 239.648C100.912 239.179 101.291 238.709 101.664 238.24C101.259 237.771 100.939 237.403 100.704 237.136C100.469 236.869 100.283 236.656 100.144 236.496C100.005 236.336 99.872 236.187 99.744 236.048C99.6267 235.899 99.4773 235.717 99.296 235.504C98.9973 235.152 98.752 234.901 98.56 234.752C98.368 234.603 98.2347 234.523 98.16 234.512H99.792C99.7173 234.523 99.7013 234.603 99.744 234.752C99.7973 234.901 99.9733 235.152 100.272 235.504C100.635 235.899 100.992 236.293 101.344 236.688C101.696 237.083 102.053 237.483 102.416 237.888H102.448C102.672 237.643 102.923 237.365 103.2 237.056C103.477 236.747 103.739 236.448 103.984 236.16C104.24 235.872 104.432 235.643 104.56 235.472C104.816 235.131 104.971 234.885 105.024 234.736C105.088 234.587 105.093 234.512 105.04 234.512H106.72C106.613 234.512 106.448 234.587 106.224 234.736C106.011 234.875 105.765 235.115 105.488 235.456C105.296 235.701 105.056 235.995 104.768 236.336C104.48 236.667 104.187 237.003 103.888 237.344C103.6 237.685 103.339 237.984 103.104 238.24C103.339 238.496 103.605 238.795 103.904 239.136C104.213 239.477 104.517 239.813 104.816 240.144C105.115 240.475 105.365 240.763 105.568 241.008C105.877 241.371 106.128 241.627 106.32 241.776C106.523 241.925 106.656 242 106.72 242H105.088C105.163 242 105.173 241.925 105.12 241.776C105.077 241.627 104.907 241.371 104.608 241.008C104.491 240.859 104.299 240.64 104.032 240.352C103.776 240.064 103.499 239.755 103.2 239.424C102.901 239.093 102.629 238.795 102.384 238.528H102.352C102.139 238.784 101.899 239.077 101.632 239.408C101.365 239.739 101.115 240.053 100.88 240.352C100.645 240.64 100.464 240.869 100.336 241.04C100.069 241.381 99.9093 241.627 99.856 241.776C99.8027 241.925 99.8027 242 99.856 242H98.16ZM107.035 242C107.152 242 107.323 241.925 107.547 241.776C107.771 241.627 108.016 241.387 108.283 241.056C108.656 240.587 109.03 240.117 109.403 239.648C109.787 239.179 110.166 238.709 110.539 238.24C110.134 237.771 109.814 237.403 109.579 237.136C109.344 236.869 109.158 236.656 109.019 236.496C108.88 236.336 108.747 236.187 108.619 236.048C108.502 235.899 108.352 235.717 108.171 235.504C107.872 235.152 107.627 234.901 107.435 234.752C107.243 234.603 107.11 234.523 107.035 234.512H108.667C108.592 234.523 108.576 234.603 108.619 234.752C108.672 234.901 108.848 235.152 109.147 235.504C109.51 235.899 109.867 236.293 110.219 236.688C110.571 237.083 110.928 237.483 111.291 237.888H111.323C111.547 237.643 111.798 237.365 112.075 237.056C112.352 236.747 112.614 236.448 112.859 236.16C113.115 235.872 113.307 235.643 113.435 235.472C113.691 235.131 113.846 234.885 113.899 234.736C113.963 234.587 113.968 234.512 113.915 234.512H115.595C115.488 234.512 115.323 234.587 115.099 234.736C114.886 234.875 114.64 235.115 114.363 235.456C114.171 235.701 113.931 235.995 113.643 236.336C113.355 236.667 113.062 237.003 112.763 237.344C112.475 237.685 112.214 237.984 111.979 238.24C112.214 238.496 112.48 238.795 112.779 239.136C113.088 239.477 113.392 239.813 113.691 240.144C113.99 240.475 114.24 240.763 114.443 241.008C114.752 241.371 115.003 241.627 115.195 241.776C115.398 241.925 115.531 242 115.595 242H113.963C114.038 242 114.048 241.925 113.995 241.776C113.952 241.627 113.782 241.371 113.483 241.008C113.366 240.859 113.174 240.64 112.907 240.352C112.651 240.064 112.374 239.755 112.075 239.424C111.776 239.093 111.504 238.795 111.259 238.528H111.227C111.014 238.784 110.774 239.077 110.507 239.408C110.24 239.739 109.99 240.053 109.755 240.352C109.52 240.64 109.339 240.869 109.211 241.04C108.944 241.381 108.784 241.627 108.731 241.776C108.678 241.925 108.678 242 108.731 242H107.035ZM116.55 242.96L120.774 230.992H121.43L117.19 242.96H116.55ZM122.394 242C122.512 242 122.682 241.925 122.906 241.776C123.13 241.627 123.376 241.387 123.642 241.056C124.016 240.587 124.389 240.117 124.762 239.648C125.146 239.179 125.525 238.709 125.898 238.24C125.493 237.771 125.173 237.403 124.938 237.136C124.704 236.869 124.517 236.656 124.378 236.496C124.24 236.336 124.106 236.187 123.978 236.048C123.861 235.899 123.712 235.717 123.53 235.504C123.232 235.152 122.986 234.901 122.794 234.752C122.602 234.603 122.469 234.523 122.394 234.512H124.026C123.952 234.523 123.936 234.603 123.978 234.752C124.032 234.901 124.208 235.152 124.506 235.504C124.869 235.899 125.226 236.293 125.578 236.688C125.93 237.083 126.288 237.483 126.65 237.888H126.682C126.906 237.643 127.157 237.365 127.434 237.056C127.712 236.747 127.973 236.448 128.218 236.16C128.474 235.872 128.666 235.643 128.794 235.472C129.05 235.131 129.205 234.885 129.258 234.736C129.322 234.587 129.328 234.512 129.274 234.512H130.954C130.848 234.512 130.682 234.587 130.458 234.736C130.245 234.875 130 235.115 129.722 235.456C129.53 235.701 129.29 235.995 129.002 236.336C128.714 236.667 128.421 237.003 128.122 237.344C127.834 237.685 127.573 237.984 127.338 238.24C127.573 238.496 127.84 238.795 128.138 239.136C128.448 239.477 128.752 239.813 129.05 240.144C129.349 240.475 129.6 240.763 129.802 241.008C130.112 241.371 130.362 241.627 130.554 241.776C130.757 241.925 130.89 242 130.954 242H129.322C129.397 242 129.408 241.925 129.354 241.776C129.312 241.627 129.141 241.371 128.842 241.008C128.725 240.859 128.533 240.64 128.266 240.352C128.01 240.064 127.733 239.755 127.434 239.424C127.136 239.093 126.864 238.795 126.618 238.528H126.586C126.373 238.784 126.133 239.077 125.866 239.408C125.6 239.739 125.349 240.053 125.114 240.352C124.88 240.64 124.698 240.869 124.57 241.04C124.304 241.381 124.144 241.627 124.09 241.776C124.037 241.925 124.037 242 124.09 242H122.394ZM131.269 242C131.387 242 131.557 241.925 131.781 241.776C132.005 241.627 132.251 241.387 132.517 241.056C132.891 240.587 133.264 240.117 133.637 239.648C134.021 239.179 134.4 238.709 134.773 238.24C134.368 237.771 134.048 237.403 133.813 237.136C133.579 236.869 133.392 236.656 133.253 236.496C133.115 236.336 132.981 236.187 132.853 236.048C132.736 235.899 132.587 235.717 132.405 235.504C132.107 235.152 131.861 234.901 131.669 234.752C131.477 234.603 131.344 234.523 131.269 234.512H132.901C132.827 234.523 132.811 234.603 132.853 234.752C132.907 234.901 133.083 235.152 133.381 235.504C133.744 235.899 134.101 236.293 134.453 236.688C134.805 237.083 135.163 237.483 135.525 237.888H135.557C135.781 237.643 136.032 237.365 136.309 237.056C136.587 236.747 136.848 236.448 137.093 236.16C137.349 235.872 137.541 235.643 137.669 235.472C137.925 235.131 138.08 234.885 138.133 234.736C138.197 234.587 138.203 234.512 138.149 234.512H139.829C139.723 234.512 139.557 234.587 139.333 234.736C139.12 234.875 138.875 235.115 138.597 235.456C138.405 235.701 138.165 235.995 137.877 236.336C137.589 236.667 137.296 237.003 136.997 237.344C136.709 237.685 136.448 237.984 136.213 238.24C136.448 238.496 136.715 238.795 137.013 239.136C137.323 239.477 137.627 239.813 137.925 240.144C138.224 240.475 138.475 240.763 138.677 241.008C138.987 241.371 139.237 241.627 139.429 241.776C139.632 241.925 139.765 242 139.829 242H138.197C138.272 242 138.283 241.925 138.229 241.776C138.187 241.627 138.016 241.371 137.717 241.008C137.6 240.859 137.408 240.64 137.141 240.352C136.885 240.064 136.608 239.755 136.309 239.424C136.011 239.093 135.739 238.795 135.493 238.528H135.461C135.248 238.784 135.008 239.077 134.741 239.408C134.475 239.739 134.224 240.053 133.989 240.352C133.755 240.64 133.573 240.869 133.445 241.04C133.179 241.381 133.019 241.627 132.965 241.776C132.912 241.925 132.912 242 132.965 242H131.269Z" fill="black"/>
<path d="M174.16 242C174.277 242 174.448 241.925 174.672 241.776C174.896 241.627 175.141 241.387 175.408 241.056C175.781 240.587 176.155 240.117 176.528 239.648C176.912 239.179 177.291 238.709 177.664 238.24C177.259 237.771 176.939 237.403 176.704 237.136C176.469 236.869 176.283 236.656 176.144 236.496C176.005 236.336 175.872 236.187 175.744 236.048C175.627 235.899 175.477 235.717 175.296 235.504C174.997 235.152 174.752 234.901 174.56 234.752C174.368 234.603 174.235 234.523 174.16 234.512H175.792C175.717 234.523 175.701 234.603 175.744 234.752C175.797 234.901 175.973 235.152 176.272 235.504C176.635 235.899 176.992 236.293 177.344 236.688C177.696 237.083 178.053 237.483 178.416 237.888H178.448C178.672 237.643 178.923 237.365 179.2 237.056C179.477 236.747 179.739 236.448 179.984 236.16C180.24 235.872 180.432 235.643 180.56 235.472C180.816 235.131 180.971 234.885 181.024 234.736C181.088 234.587 181.093 234.512 181.04 234.512H182.72C182.613 234.512 182.448 234.587 182.224 234.736C182.011 234.875 181.765 235.115 181.488 235.456C181.296 235.701 181.056 235.995 180.768 236.336C180.48 236.667 180.187 237.003 179.888 237.344C179.6 237.685 179.339 237.984 179.104 238.24C179.339 238.496 179.605 238.795 179.904 239.136C180.213 239.477 180.517 239.813 180.816 240.144C181.115 240.475 181.365 240.763 181.568 241.008C181.877 241.371 182.128 241.627 182.32 241.776C182.523 241.925 182.656 242 182.72 242H181.088C181.163 242 181.173 241.925 181.12 241.776C181.077 241.627 180.907 241.371 180.608 241.008C180.491 240.859 180.299 240.64 180.032 240.352C179.776 240.064 179.499 239.755 179.2 239.424C178.901 239.093 178.629 238.795 178.384 238.528H178.352C178.139 238.784 177.899 239.077 177.632 239.408C177.365 239.739 177.115 240.053 176.88 240.352C176.645 240.64 176.464 240.869 176.336 241.04C176.069 241.381 175.909 241.627 175.856 241.776C175.803 241.925 175.803 242 175.856 242H174.16ZM183.035 242C183.152 242 183.323 241.925 183.547 241.776C183.771 241.627 184.016 241.387 184.283 241.056C184.656 240.587 185.03 240.117 185.403 239.648C185.787 239.179 186.166 238.709 186.539 238.24C186.134 237.771 185.814 237.403 185.579 237.136C185.344 236.869 185.158 236.656 185.019 236.496C184.88 236.336 184.747 236.187 184.619 236.048C184.502 235.899 184.352 235.717 184.171 235.504C183.872 235.152 183.627 234.901 183.435 234.752C183.243 234.603 183.11 234.523 183.035 234.512H184.667C184.592 234.523 184.576 234.603 184.619 234.752C184.672 234.901 184.848 235.152 185.147 235.504C185.51 235.899 185.867 236.293 186.219 236.688C186.571 237.083 186.928 237.483 187.291 237.888H187.323C187.547 237.643 187.798 237.365 188.075 237.056C188.352 236.747 188.614 236.448 188.859 236.16C189.115 235.872 189.307 235.643 189.435 235.472C189.691 235.131 189.846 234.885 189.899 234.736C189.963 234.587 189.968 234.512 189.915 234.512H191.595C191.488 234.512 191.323 234.587 191.099 234.736C190.886 234.875 190.64 235.115 190.363 235.456C190.171 235.701 189.931 235.995 189.643 236.336C189.355 236.667 189.062 237.003 188.763 237.344C188.475 237.685 188.214 237.984 187.979 238.24C188.214 238.496 188.48 238.795 188.779 239.136C189.088 239.477 189.392 239.813 189.691 240.144C189.99 240.475 190.24 240.763 190.443 241.008C190.752 241.371 191.003 241.627 191.195 241.776C191.398 241.925 191.531 242 191.595 242H189.963C190.038 242 190.048 241.925 189.995 241.776C189.952 241.627 189.782 241.371 189.483 241.008C189.366 240.859 189.174 240.64 188.907 240.352C188.651 240.064 188.374 239.755 188.075 239.424C187.776 239.093 187.504 238.795 187.259 238.528H187.227C187.014 238.784 186.774 239.077 186.507 239.408C186.24 239.739 185.99 240.053 185.755 240.352C185.52 240.64 185.339 240.869 185.211 241.04C184.944 241.381 184.784 241.627 184.731 241.776C184.678 241.925 184.678 242 184.731 242H183.035ZM191.91 242C192.027 242 192.198 241.925 192.422 241.776C192.646 241.627 192.891 241.387 193.158 241.056C193.531 240.587 193.905 240.117 194.278 239.648C194.662 239.179 195.041 238.709 195.414 238.24C195.009 237.771 194.689 237.403 194.454 237.136C194.219 236.869 194.033 236.656 193.894 236.496C193.755 236.336 193.622 236.187 193.494 236.048C193.377 235.899 193.227 235.717 193.046 235.504C192.747 235.152 192.502 234.901 192.31 234.752C192.118 234.603 191.985 234.523 191.91 234.512H193.542C193.467 234.523 193.451 234.603 193.494 234.752C193.547 234.901 193.723 235.152 194.022 235.504C194.385 235.899 194.742 236.293 195.094 236.688C195.446 237.083 195.803 237.483 196.166 237.888H196.198C196.422 237.643 196.673 237.365 196.95 237.056C197.227 236.747 197.489 236.448 197.734 236.16C197.99 235.872 198.182 235.643 198.31 235.472C198.566 235.131 198.721 234.885 198.774 234.736C198.838 234.587 198.843 234.512 198.79 234.512H200.47C200.363 234.512 200.198 234.587 199.974 234.736C199.761 234.875 199.515 235.115 199.238 235.456C199.046 235.701 198.806 235.995 198.518 236.336C198.23 236.667 197.937 237.003 197.638 237.344C197.35 237.685 197.089 237.984 196.854 238.24C197.089 238.496 197.355 238.795 197.654 239.136C197.963 239.477 198.267 239.813 198.566 240.144C198.865 240.475 199.115 240.763 199.318 241.008C199.627 241.371 199.878 241.627 200.07 241.776C200.273 241.925 200.406 242 200.47 242H198.838C198.913 242 198.923 241.925 198.87 241.776C198.827 241.627 198.657 241.371 198.358 241.008C198.241 240.859 198.049 240.64 197.782 240.352C197.526 240.064 197.249 239.755 196.95 239.424C196.651 239.093 196.379 238.795 196.134 238.528H196.102C195.889 238.784 195.649 239.077 195.382 239.408C195.115 239.739 194.865 240.053 194.63 240.352C194.395 240.64 194.214 240.869 194.086 241.04C193.819 241.381 193.659 241.627 193.606 241.776C193.553 241.925 193.553 242 193.606 242H191.91Z" fill="black"/>
<path d="M100.652 227C100.708 227 100.744 226.948 100.76 226.844C100.784 226.732 100.748 226.544 100.652 226.28C100.612 226.176 100.532 225.992 100.412 225.728C100.292 225.464 100.148 225.16 99.98 224.816C99.82 224.464 99.652 224.112 99.476 223.76C99.308 223.4 99.152 223.076 99.008 222.788C98.864 222.492 98.752 222.272 98.672 222.128C98.536 221.872 98.412 221.688 98.3 221.576C98.188 221.456 98.108 221.392 98.06 221.384H99.392C99.32 221.384 99.272 221.44 99.248 221.552C99.224 221.664 99.272 221.856 99.392 222.128C99.456 222.264 99.556 222.484 99.692 222.788C99.828 223.084 99.984 223.428 100.16 223.82C100.336 224.212 100.516 224.612 100.7 225.02C100.892 225.428 101.072 225.812 101.24 226.172H101.252C101.42 225.812 101.6 225.424 101.792 225.008C101.992 224.592 102.18 224.188 102.356 223.796C102.54 223.396 102.7 223.048 102.836 222.752C102.98 222.448 103.08 222.232 103.136 222.104C103.248 221.848 103.292 221.664 103.268 221.552C103.244 221.44 103.2 221.384 103.136 221.384H104.408C104.36 221.384 104.284 221.44 104.18 221.552C104.084 221.656 103.972 221.836 103.844 222.092C103.772 222.228 103.664 222.436 103.52 222.716C103.376 222.996 103.216 223.312 103.04 223.664C102.864 224.008 102.688 224.352 102.512 224.696C102.344 225.04 102.196 225.356 102.068 225.644C101.948 225.924 101.868 226.136 101.828 226.28C101.756 226.544 101.728 226.732 101.744 226.844C101.76 226.948 101.788 227 101.828 227H100.652ZM107.386 227.12C106.514 227.12 105.878 226.976 105.478 226.688C105.086 226.392 104.89 225.952 104.89 225.368C104.89 224.792 105.118 224.348 105.574 224.036C106.03 223.724 106.746 223.568 107.722 223.568C108.274 223.568 108.722 223.616 109.066 223.712C109.41 223.8 109.674 223.9 109.858 224.012C110.042 224.124 110.166 224.212 110.23 224.276C110.23 223.676 110.166 223.192 110.038 222.824C109.91 222.448 109.674 222.176 109.33 222.008C108.986 221.832 108.49 221.744 107.842 221.744C107.474 221.744 107.118 221.78 106.774 221.852C106.438 221.916 106.142 222 105.886 222.104C105.638 222.208 105.466 222.308 105.37 222.404V222.284L105.25 221.744C105.29 221.72 105.414 221.672 105.622 221.6C105.83 221.52 106.126 221.444 106.51 221.372C106.902 221.3 107.378 221.264 107.938 221.264C108.978 221.264 109.718 221.48 110.158 221.912C110.606 222.336 110.83 222.992 110.83 223.88V226.28C110.83 226.504 110.854 226.668 110.902 226.772C110.958 226.868 111.014 226.944 111.07 227H110.23V226.388L110.254 226.16L110.23 226.148C110.182 226.204 110.102 226.288 109.99 226.4C109.878 226.504 109.714 226.612 109.498 226.724C109.29 226.836 109.014 226.928 108.67 227C108.334 227.08 107.906 227.12 107.386 227.12ZM107.542 226.628C108.038 226.628 108.486 226.568 108.886 226.448C109.294 226.328 109.618 226.164 109.858 225.956C110.106 225.74 110.23 225.5 110.23 225.236C110.23 224.9 110.038 224.62 109.654 224.396C109.27 224.164 108.65 224.048 107.794 224.048C106.266 224.048 105.502 224.488 105.502 225.368C105.502 225.808 105.662 226.128 105.982 226.328C106.302 226.528 106.822 226.628 107.542 226.628ZM112.17 227C112.226 227 112.278 226.944 112.326 226.832C112.382 226.72 112.41 226.536 112.41 226.28V219.44C112.41 219.184 112.382 219.004 112.326 218.9C112.278 218.788 112.226 218.728 112.17 218.72C112.41 218.72 112.602 218.696 112.746 218.648C112.898 218.592 112.994 218.536 113.034 218.48V226.28C113.034 226.536 113.058 226.72 113.106 226.832C113.162 226.944 113.218 227 113.274 227H112.17ZM114.983 220.052C114.815 220.052 114.683 220.004 114.587 219.908C114.499 219.812 114.455 219.7 114.455 219.572C114.455 219.436 114.499 219.324 114.587 219.236C114.675 219.14 114.807 219.092 114.983 219.092C115.159 219.092 115.291 219.14 115.379 219.236C115.475 219.324 115.523 219.436 115.523 219.572C115.523 219.7 115.475 219.812 115.379 219.908C115.291 220.004 115.159 220.052 114.983 220.052ZM114.455 227C114.511 227 114.563 226.944 114.611 226.832C114.667 226.72 114.695 226.536 114.695 226.28V222.104C114.695 221.848 114.667 221.668 114.611 221.564C114.563 221.452 114.511 221.392 114.455 221.384H115.319V226.28C115.319 226.536 115.343 226.72 115.391 226.832C115.447 226.944 115.503 227 115.559 227H114.455ZM119.536 227.12C118.776 227.12 118.184 226.992 117.76 226.736C117.344 226.48 117.052 226.132 116.884 225.692C116.724 225.252 116.644 224.756 116.644 224.204C116.644 223.644 116.728 223.144 116.896 222.704C117.072 222.264 117.372 221.916 117.796 221.66C118.22 221.396 118.8 221.264 119.536 221.264C120.048 221.264 120.476 221.328 120.82 221.456C121.172 221.584 121.448 221.732 121.648 221.9C121.856 222.068 122.004 222.212 122.092 222.332L122.116 222.32L122.092 222.092V219.44C122.092 219.184 122.064 219.004 122.008 218.9C121.96 218.788 121.908 218.728 121.852 218.72H122.716V226.28C122.716 226.536 122.74 226.72 122.788 226.832C122.844 226.944 122.9 227 122.956 227H122.092V226.244L122.128 226.016L122.092 226.004C121.972 226.14 121.82 226.296 121.636 226.472C121.452 226.648 121.196 226.8 120.868 226.928C120.54 227.056 120.096 227.12 119.536 227.12ZM119.62 226.64C120.196 226.64 120.664 226.532 121.024 226.316C121.392 226.092 121.66 225.796 121.828 225.428C122.004 225.052 122.092 224.644 122.092 224.204C122.092 223.732 122.004 223.312 121.828 222.944C121.652 222.568 121.38 222.276 121.012 222.068C120.652 221.852 120.188 221.744 119.62 221.744C118.836 221.744 118.244 221.94 117.844 222.332C117.452 222.724 117.256 223.352 117.256 224.216C117.256 225.016 117.448 225.62 117.832 226.028C118.216 226.436 118.812 226.64 119.62 226.64ZM126.535 227.12C125.663 227.12 125.027 226.976 124.627 226.688C124.235 226.392 124.039 225.952 124.039 225.368C124.039 224.792 124.267 224.348 124.723 224.036C125.179 223.724 125.895 223.568 126.871 223.568C127.423 223.568 127.871 223.616 128.215 223.712C128.559 223.8 128.823 223.9 129.007 224.012C129.191 224.124 129.315 224.212 129.379 224.276C129.379 223.676 129.315 223.192 129.187 222.824C129.059 222.448 128.823 222.176 128.479 222.008C128.135 221.832 127.639 221.744 126.991 221.744C126.623 221.744 126.267 221.78 125.923 221.852C125.587 221.916 125.291 222 125.035 222.104C124.787 222.208 124.615 222.308 124.519 222.404V222.284L124.399 221.744C124.439 221.72 124.563 221.672 124.771 221.6C124.979 221.52 125.275 221.444 125.659 221.372C126.051 221.3 126.527 221.264 127.087 221.264C128.127 221.264 128.867 221.48 129.307 221.912C129.755 222.336 129.979 222.992 129.979 223.88V226.28C129.979 226.504 130.003 226.668 130.051 226.772C130.107 226.868 130.163 226.944 130.219 227H129.379V226.388L129.403 226.16L129.379 226.148C129.331 226.204 129.251 226.288 129.139 226.4C129.027 226.504 128.863 226.612 128.647 226.724C128.439 226.836 128.163 226.928 127.819 227C127.483 227.08 127.055 227.12 126.535 227.12ZM126.691 226.628C127.187 226.628 127.635 226.568 128.035 226.448C128.443 226.328 128.767 226.164 129.007 225.956C129.255 225.74 129.379 225.5 129.379 225.236C129.379 224.9 129.187 224.62 128.803 224.396C128.419 224.164 127.799 224.048 126.943 224.048C125.415 224.048 124.651 224.488 124.651 225.368C124.651 225.808 124.811 226.128 125.131 226.328C125.451 226.528 125.971 226.628 126.691 226.628ZM134.091 227.12C133.331 227.12 132.739 226.992 132.315 226.736C131.899 226.48 131.607 226.132 131.439 225.692C131.279 225.252 131.199 224.756 131.199 224.204C131.199 223.644 131.283 223.144 131.451 222.704C131.627 222.264 131.927 221.916 132.351 221.66C132.775 221.396 133.355 221.264 134.091 221.264C134.603 221.264 135.031 221.328 135.375 221.456C135.727 221.584 136.003 221.732 136.203 221.9C136.411 222.068 136.559 222.212 136.647 222.332L136.671 222.32L136.647 222.092V219.44C136.647 219.184 136.619 219.004 136.563 218.9C136.515 218.788 136.463 218.728 136.407 218.72H137.271V226.28C137.271 226.536 137.295 226.72 137.343 226.832C137.399 226.944 137.455 227 137.511 227H136.647V226.244L136.683 226.016L136.647 226.004C136.527 226.14 136.375 226.296 136.191 226.472C136.007 226.648 135.751 226.8 135.423 226.928C135.095 227.056 134.651 227.12 134.091 227.12ZM134.175 226.64C134.751 226.64 135.219 226.532 135.579 226.316C135.947 226.092 136.215 225.796 136.383 225.428C136.559 225.052 136.647 224.644 136.647 224.204C136.647 223.732 136.559 223.312 136.383 222.944C136.207 222.568 135.935 222.276 135.567 222.068C135.207 221.852 134.743 221.744 134.175 221.744C133.391 221.744 132.799 221.94 132.399 222.332C132.007 222.724 131.811 223.352 131.811 224.216C131.811 225.016 132.003 225.62 132.387 226.028C132.771 226.436 133.367 226.64 134.175 226.64ZM141.797 227.12C140.981 227.12 140.337 226.996 139.865 226.748C139.401 226.492 139.073 226.144 138.881 225.704C138.689 225.264 138.593 224.764 138.593 224.204C138.593 223.228 138.861 222.496 139.397 222.008C139.933 221.512 140.653 221.264 141.557 221.264C142.085 221.264 142.525 221.34 142.877 221.492C143.237 221.644 143.517 221.848 143.717 222.104C143.925 222.352 144.073 222.632 144.161 222.944C144.249 223.256 144.293 223.576 144.293 223.904V224.288C144.285 224.264 144.177 224.24 143.969 224.216C143.769 224.184 143.437 224.168 142.973 224.168H139.181C139.181 224.952 139.389 225.56 139.805 225.992C140.229 226.424 140.893 226.64 141.797 226.64C142.421 226.64 142.925 226.564 143.309 226.412C143.693 226.26 143.941 226.112 144.053 225.968V226.088L144.173 226.52C144.061 226.648 143.805 226.78 143.405 226.916C143.005 227.052 142.469 227.12 141.797 227.12ZM139.637 223.676H143.657C143.657 223.34 143.589 223.024 143.453 222.728C143.325 222.432 143.105 222.196 142.793 222.02C142.489 221.836 142.077 221.744 141.557 221.744C141.069 221.744 140.657 221.836 140.321 222.02C139.985 222.196 139.729 222.416 139.553 222.68C139.385 222.936 139.301 223.188 139.301 223.436C139.301 223.516 139.325 223.576 139.373 223.616C139.421 223.656 139.509 223.676 139.637 223.676Z" fill="black"/>
<path d="M180.596 227.12C179.244 227.12 178.24 226.824 177.584 226.232C176.928 225.632 176.6 224.688 176.6 223.4C176.6 222.656 176.724 222.008 176.972 221.456C177.22 220.896 177.628 220.46 178.196 220.148C178.764 219.836 179.524 219.68 180.476 219.68C181.148 219.68 181.744 219.748 182.264 219.884C182.792 220.012 183.168 220.144 183.392 220.28V220.4L183.512 221C183.368 220.88 183.152 220.756 182.864 220.628C182.584 220.5 182.244 220.392 181.844 220.304C181.444 220.208 180.996 220.16 180.5 220.16C179.372 220.16 178.548 220.448 178.028 221.024C177.508 221.592 177.248 222.384 177.248 223.4C177.248 224.44 177.512 225.24 178.04 225.8C178.576 226.352 179.472 226.628 180.728 226.628C181.488 226.628 182.104 226.548 182.576 226.388C183.048 226.22 183.36 226.06 183.512 225.908V226.04L183.632 226.52C183.464 226.648 183.12 226.78 182.6 226.916C182.088 227.052 181.42 227.12 180.596 227.12ZM187.697 227C187.753 227 187.789 226.944 187.805 226.832C187.829 226.72 187.793 226.532 187.697 226.268C187.665 226.18 187.581 226 187.445 225.728C187.317 225.448 187.157 225.112 186.965 224.72C186.773 224.328 186.569 223.916 186.353 223.484C186.137 223.052 185.925 222.636 185.717 222.236C185.509 221.836 185.325 221.484 185.165 221.18C185.013 220.876 184.905 220.664 184.841 220.544C184.705 220.288 184.581 220.104 184.469 219.992C184.357 219.872 184.277 219.808 184.229 219.8H185.561C185.489 219.808 185.441 219.872 185.417 219.992C185.393 220.104 185.441 220.288 185.561 220.544C185.609 220.648 185.701 220.84 185.837 221.12C185.973 221.4 186.137 221.74 186.329 222.14C186.529 222.54 186.741 222.972 186.965 223.436C187.189 223.892 187.413 224.356 187.637 224.828C187.869 225.292 188.089 225.736 188.297 226.16H188.309C188.517 225.736 188.737 225.288 188.969 224.816C189.201 224.344 189.429 223.876 189.653 223.412C189.885 222.948 190.097 222.516 190.289 222.116C190.489 221.716 190.653 221.376 190.781 221.096C190.917 220.816 191.009 220.624 191.057 220.52C191.169 220.272 191.213 220.092 191.189 219.98C191.165 219.868 191.121 219.808 191.057 219.8H192.329C192.281 219.8 192.205 219.856 192.101 219.968C192.005 220.072 191.893 220.252 191.765 220.508C191.709 220.62 191.601 220.824 191.441 221.12C191.289 221.408 191.109 221.752 190.901 222.152C190.701 222.544 190.489 222.956 190.265 223.388C190.041 223.812 189.829 224.22 189.629 224.612C189.437 225.004 189.273 225.348 189.137 225.644C189.001 225.94 188.917 226.148 188.885 226.268C188.813 226.532 188.785 226.72 188.801 226.832C188.817 226.944 188.845 227 188.885 227H187.697ZM196.041 227C196.097 227 196.133 226.944 196.149 226.832C196.173 226.72 196.137 226.532 196.041 226.268C196.009 226.18 195.925 226 195.789 225.728C195.661 225.448 195.501 225.112 195.309 224.72C195.117 224.328 194.913 223.916 194.697 223.484C194.481 223.052 194.269 222.636 194.061 222.236C193.853 221.836 193.669 221.484 193.509 221.18C193.357 220.876 193.249 220.664 193.185 220.544C193.049 220.288 192.925 220.104 192.813 219.992C192.701 219.872 192.621 219.808 192.573 219.8H193.905C193.833 219.808 193.785 219.872 193.761 219.992C193.737 220.104 193.785 220.288 193.905 220.544C193.953 220.648 194.045 220.84 194.181 221.12C194.317 221.4 194.481 221.74 194.673 222.14C194.873 222.54 195.085 222.972 195.309 223.436C195.533 223.892 195.757 224.356 195.981 224.828C196.213 225.292 196.433 225.736 196.641 226.16H196.653C196.861 225.736 197.081 225.288 197.313 224.816C197.545 224.344 197.773 223.876 197.997 223.412C198.229 222.948 198.441 222.516 198.633 222.116C198.833 221.716 198.997 221.376 199.125 221.096C199.261 220.816 199.353 220.624 199.401 220.52C199.513 220.272 199.557 220.092 199.533 219.98C199.509 219.868 199.465 219.808 199.401 219.8H200.673C200.625 219.8 200.549 219.856 200.445 219.968C200.349 220.072 200.237 220.252 200.109 220.508C200.053 220.62 199.945 220.824 199.785 221.12C199.633 221.408 199.453 221.752 199.245 222.152C199.045 222.544 198.833 222.956 198.609 223.388C198.385 223.812 198.173 224.22 197.973 224.612C197.781 225.004 197.617 225.348 197.481 225.644C197.345 225.94 197.261 226.148 197.229 226.268C197.157 226.532 197.129 226.72 197.145 226.832C197.161 226.944 197.189 227 197.229 227H196.041Z" fill="black"/>
<path d="M27.576 174C27.632 174 27.684 173.944 27.732 173.832C27.788 173.72 27.816 173.536 27.816 173.28V169.224C27.816 168.968 27.788 168.788 27.732 168.684C27.684 168.572 27.632 168.512 27.576 168.504C27.832 168.504 28.032 168.48 28.176 168.432C28.32 168.376 28.408 168.32 28.44 168.264V169.368L28.416 169.524L28.44 169.548C28.56 169.348 28.732 169.152 28.956 168.96C29.18 168.76 29.464 168.596 29.808 168.468C30.16 168.332 30.58 168.264 31.068 168.264C31.86 168.264 32.46 168.476 32.868 168.9C33.284 169.324 33.492 169.988 33.492 170.892V173.28C33.492 173.536 33.516 173.72 33.564 173.832C33.62 173.944 33.676 174 33.732 174H32.628C32.684 174 32.736 173.944 32.784 173.832C32.84 173.72 32.868 173.536 32.868 173.28V170.928C32.868 170.144 32.7 169.584 32.364 169.248C32.028 168.912 31.524 168.744 30.852 168.744C30.42 168.744 30.02 168.844 29.652 169.044C29.284 169.244 28.988 169.532 28.764 169.908C28.548 170.284 28.44 170.74 28.44 171.276V173.28C28.44 173.536 28.464 173.72 28.512 173.832C28.568 173.944 28.624 174 28.68 174H27.576ZM37.4705 174.12C36.6945 174.12 36.0945 173.932 35.6705 173.556C35.2545 173.172 35.0465 172.512 35.0465 171.576V169.104C35.0465 168.848 35.0185 168.664 34.9625 168.552C34.9145 168.44 34.8625 168.384 34.8065 168.384H35.9225C35.8665 168.384 35.8065 168.44 35.7425 168.552C35.6865 168.664 35.6585 168.848 35.6585 169.104V171.624C35.6585 172.32 35.8065 172.828 36.1025 173.148C36.3985 173.468 36.8465 173.628 37.4465 173.628C37.9105 173.628 38.3425 173.544 38.7425 173.376C39.1505 173.2 39.4785 172.916 39.7265 172.524C39.9825 172.124 40.1105 171.592 40.1105 170.928V169.104C40.1105 168.848 40.0825 168.668 40.0265 168.564C39.9785 168.452 39.9265 168.392 39.8705 168.384H40.7345V173.28C40.7345 173.536 40.7585 173.72 40.8065 173.832C40.8625 173.944 40.9185 174 40.9745 174H40.1105V173.04L40.1345 172.8L40.1105 172.776C40.0545 172.872 39.9665 172.996 39.8465 173.148C39.7265 173.292 39.5625 173.44 39.3545 173.592C39.1545 173.736 38.8985 173.86 38.5865 173.964C38.2825 174.068 37.9105 174.12 37.4705 174.12ZM37.3865 167.4C37.3545 167.4 37.3625 167.328 37.4105 167.184C37.4665 167.032 37.5425 166.848 37.6385 166.632C37.7425 166.408 37.8465 166.192 37.9505 165.984C38.0625 165.768 38.1585 165.6 38.2385 165.48C38.3265 165.344 38.4105 165.252 38.4905 165.204C38.5785 165.148 38.6905 165.12 38.8265 165.12H38.9585C39.1585 165.12 39.1705 165.244 38.9945 165.492C38.8665 165.668 38.7225 165.868 38.5625 166.092C38.4025 166.308 38.2425 166.516 38.0825 166.716C37.9305 166.916 37.7905 167.08 37.6625 167.208C37.5345 167.336 37.4425 167.4 37.3865 167.4ZM42.0487 174C42.1047 174 42.1567 173.944 42.2047 173.832C42.2607 173.72 42.2887 173.536 42.2887 173.28V169.224C42.2887 168.968 42.2607 168.788 42.2047 168.684C42.1567 168.572 42.1047 168.512 42.0487 168.504C42.3047 168.504 42.5047 168.48 42.6487 168.432C42.7927 168.376 42.8807 168.32 42.9127 168.264V169.368L42.8887 169.524L42.9127 169.548C43.0327 169.348 43.2047 169.152 43.4287 168.96C43.6607 168.76 43.9407 168.596 44.2687 168.468C44.6047 168.332 44.9887 168.264 45.4207 168.264C45.9087 168.264 46.3007 168.364 46.5967 168.564C46.9007 168.764 47.1247 169.056 47.2687 169.44C47.4447 169.12 47.7087 168.844 48.0607 168.612C48.4207 168.38 48.9007 168.264 49.5007 168.264C50.3087 168.264 50.9127 168.476 51.3127 168.9C51.7207 169.324 51.9247 169.988 51.9247 170.892V173.28C51.9247 173.536 51.9487 173.72 51.9967 173.832C52.0527 173.944 52.1087 174 52.1647 174H51.0607C51.1167 174 51.1687 173.944 51.2167 173.832C51.2727 173.72 51.3007 173.536 51.3007 173.28V170.928C51.3007 170.36 51.2047 169.92 51.0127 169.608C50.8287 169.288 50.5927 169.064 50.3047 168.936C50.0167 168.808 49.7167 168.744 49.4047 168.744C48.7967 168.744 48.3247 168.952 47.9887 169.368C47.6527 169.776 47.4847 170.328 47.4847 171.024V173.28C47.4847 173.536 47.5087 173.72 47.5567 173.832C47.6127 173.944 47.6687 174 47.7247 174H46.6207C46.6767 174 46.7287 173.944 46.7767 173.832C46.8327 173.72 46.8607 173.536 46.8607 173.28V170.928C46.8607 170.144 46.7287 169.584 46.4647 169.248C46.2007 168.912 45.7807 168.744 45.2047 168.744C44.8127 168.744 44.4407 168.848 44.0887 169.056C43.7367 169.256 43.4527 169.548 43.2367 169.932C43.0207 170.308 42.9127 170.756 42.9127 171.276V173.28C42.9127 173.536 42.9367 173.72 42.9847 173.832C43.0407 173.944 43.0967 174 43.1527 174H42.0487ZM56.3481 174.12C55.5321 174.12 54.8881 173.996 54.4161 173.748C53.9521 173.492 53.6241 173.144 53.4321 172.704C53.2401 172.264 53.1441 171.764 53.1441 171.204C53.1441 170.228 53.4121 169.496 53.9481 169.008C54.4841 168.512 55.2041 168.264 56.1081 168.264C56.6361 168.264 57.0761 168.34 57.4281 168.492C57.7881 168.644 58.0681 168.848 58.2681 169.104C58.4761 169.352 58.6241 169.632 58.7121 169.944C58.8001 170.256 58.8441 170.576 58.8441 170.904V171.288C58.8361 171.264 58.7281 171.24 58.5201 171.216C58.3201 171.184 57.9881 171.168 57.5241 171.168H53.7321C53.7321 171.952 53.9401 172.56 54.3561 172.992C54.7801 173.424 55.4441 173.64 56.3481 173.64C56.9721 173.64 57.4761 173.564 57.8601 173.412C58.2441 173.26 58.4921 173.112 58.6041 172.968V173.088L58.7241 173.52C58.6121 173.648 58.3561 173.78 57.9561 173.916C57.5561 174.052 57.0201 174.12 56.3481 174.12ZM54.1881 170.676H58.2081C58.2081 170.34 58.1401 170.024 58.0041 169.728C57.8761 169.432 57.6561 169.196 57.3441 169.02C57.0401 168.836 56.6281 168.744 56.1081 168.744C55.6201 168.744 55.2081 168.836 54.8721 169.02C54.5361 169.196 54.2801 169.416 54.1041 169.68C53.9361 169.936 53.8521 170.188 53.8521 170.436C53.8521 170.516 53.8761 170.576 53.9241 170.616C53.9721 170.656 54.0601 170.676 54.1881 170.676ZM59.8963 174C59.9523 174 60.0043 173.944 60.0523 173.832C60.1083 173.72 60.1363 173.536 60.1363 173.28V169.224C60.1363 168.968 60.1083 168.788 60.0523 168.684C60.0043 168.572 59.9523 168.512 59.8963 168.504C60.1443 168.504 60.3403 168.48 60.4843 168.432C60.6283 168.376 60.7203 168.32 60.7603 168.264V169.116L60.7363 169.32L60.7603 169.344C60.8483 169.192 60.9643 169.032 61.1083 168.864C61.2523 168.696 61.4523 168.556 61.7083 168.444C61.9643 168.324 62.2883 168.264 62.6803 168.264C63.1123 168.264 63.4883 168.32 63.8083 168.432C64.1363 168.536 64.3643 168.644 64.4923 168.756L64.3723 169.404V169.524C64.2683 169.356 64.0643 169.184 63.7603 169.008C63.4563 168.832 63.0643 168.744 62.5843 168.744C62.0003 168.744 61.5483 168.94 61.2283 169.332C60.9163 169.724 60.7603 170.24 60.7603 170.88V173.28C60.7603 173.536 60.7843 173.72 60.8323 173.832C60.8883 173.944 60.9443 174 61.0003 174H59.8963ZM67.9471 174.12C67.1471 174.12 66.5191 173.992 66.0631 173.736C65.6151 173.48 65.2991 173.132 65.1151 172.692C64.9391 172.252 64.8511 171.756 64.8511 171.204C64.8511 170.644 64.9431 170.144 65.1271 169.704C65.3191 169.264 65.6391 168.916 66.0871 168.66C66.5351 168.396 67.1551 168.264 67.9471 168.264C68.7391 168.264 69.3591 168.396 69.8071 168.66C70.2631 168.916 70.5831 169.264 70.7671 169.704C70.9511 170.144 71.0431 170.644 71.0431 171.204C71.0431 171.756 70.9431 172.252 70.7431 172.692C70.5511 173.132 70.2311 173.48 69.7831 173.736C69.3351 173.992 68.7231 174.12 67.9471 174.12ZM67.9471 173.64C68.7711 173.64 69.3871 173.456 69.7951 173.088C70.2111 172.712 70.4191 172.084 70.4191 171.204C70.4191 170.324 70.2111 169.696 69.7951 169.32C69.3791 168.936 68.7631 168.744 67.9471 168.744C67.1311 168.744 66.5151 168.94 66.0991 169.332C65.6831 169.724 65.4751 170.352 65.4751 171.216C65.4751 172.08 65.6791 172.7 66.0871 173.076C66.5031 173.452 67.1231 173.64 67.9471 173.64ZM77.7743 174.12C77.0143 174.12 76.4223 173.992 75.9983 173.736C75.5823 173.48 75.2903 173.132 75.1223 172.692C74.9623 172.252 74.8823 171.756 74.8823 171.204C74.8823 170.644 74.9663 170.144 75.1343 169.704C75.3103 169.264 75.6103 168.916 76.0343 168.66C76.4583 168.396 77.0383 168.264 77.7743 168.264C78.2863 168.264 78.7143 168.328 79.0583 168.456C79.4103 168.584 79.6863 168.732 79.8863 168.9C80.0943 169.068 80.2423 169.212 80.3303 169.332L80.3543 169.32L80.3303 169.092V166.44C80.3303 166.184 80.3023 166.004 80.2463 165.9C80.1983 165.788 80.1463 165.728 80.0903 165.72H80.9543V173.28C80.9543 173.536 80.9783 173.72 81.0263 173.832C81.0823 173.944 81.1383 174 81.1943 174H80.3303V173.244L80.3663 173.016L80.3303 173.004C80.2103 173.14 80.0583 173.296 79.8743 173.472C79.6903 173.648 79.4343 173.8 79.1063 173.928C78.7783 174.056 78.3343 174.12 77.7743 174.12ZM77.8583 173.64C78.4343 173.64 78.9023 173.532 79.2623 173.316C79.6303 173.092 79.8983 172.796 80.0663 172.428C80.2423 172.052 80.3303 171.644 80.3303 171.204C80.3303 170.732 80.2423 170.312 80.0663 169.944C79.8903 169.568 79.6183 169.276 79.2503 169.068C78.8903 168.852 78.4263 168.744 77.8583 168.744C77.0743 168.744 76.4823 168.94 76.0823 169.332C75.6903 169.724 75.4943 170.352 75.4943 171.216C75.4943 172.016 75.6863 172.62 76.0703 173.028C76.4543 173.436 77.0503 173.64 77.8583 173.64ZM85.3729 174.12C84.5729 174.12 83.9449 173.992 83.4889 173.736C83.0409 173.48 82.7249 173.132 82.5409 172.692C82.3649 172.252 82.2769 171.756 82.2769 171.204C82.2769 170.644 82.3689 170.144 82.5529 169.704C82.7449 169.264 83.0649 168.916 83.5129 168.66C83.9609 168.396 84.5809 168.264 85.3729 168.264C86.1649 168.264 86.7849 168.396 87.2329 168.66C87.6889 168.916 88.0089 169.264 88.1929 169.704C88.3769 170.144 88.4689 170.644 88.4689 171.204C88.4689 171.756 88.3689 172.252 88.1689 172.692C87.9769 173.132 87.6569 173.48 87.2089 173.736C86.7609 173.992 86.1489 174.12 85.3729 174.12ZM85.3729 173.64C86.1969 173.64 86.8129 173.456 87.2209 173.088C87.6369 172.712 87.8449 172.084 87.8449 171.204C87.8449 170.324 87.6369 169.696 87.2209 169.32C86.8049 168.936 86.1889 168.744 85.3729 168.744C84.5569 168.744 83.9409 168.94 83.5249 169.332C83.1089 169.724 82.9009 170.352 82.9009 171.216C82.9009 172.08 83.1049 172.7 83.5129 173.076C83.9289 173.452 84.5489 173.64 85.3729 173.64ZM95.4401 174.12C94.6641 174.12 94.0441 173.992 93.5801 173.736C93.1241 173.48 92.7961 173.132 92.5961 172.692C92.4041 172.252 92.3081 171.756 92.3081 171.204C92.3081 170.228 92.5641 169.496 93.0761 169.008C93.5961 168.52 94.3441 168.276 95.3201 168.276C95.9841 168.276 96.5361 168.328 96.9761 168.432C97.4241 168.536 97.7281 168.64 97.8881 168.744V168.864L98.0081 169.428C97.8561 169.284 97.5561 169.136 97.1081 168.984C96.6601 168.832 96.0921 168.756 95.4041 168.756C94.6281 168.756 94.0201 168.956 93.5801 169.356C93.1401 169.756 92.9201 170.376 92.9201 171.216C92.9201 172.04 93.1681 172.652 93.6641 173.052C94.1601 173.444 94.8081 173.64 95.6081 173.64C96.2241 173.64 96.7401 173.552 97.1561 173.376C97.5721 173.192 97.8561 173.016 98.0081 172.848V172.968L98.1281 173.424C97.9521 173.576 97.6281 173.732 97.1561 173.892C96.6841 174.044 96.1121 174.12 95.4401 174.12ZM101.589 174.12C100.717 174.12 100.081 173.976 99.6813 173.688C99.2893 173.392 99.0933 172.952 99.0933 172.368C99.0933 171.792 99.3213 171.348 99.7773 171.036C100.233 170.724 100.949 170.568 101.925 170.568C102.477 170.568 102.925 170.616 103.269 170.712C103.613 170.8 103.877 170.9 104.061 171.012C104.245 171.124 104.369 171.212 104.433 171.276C104.433 170.676 104.369 170.192 104.241 169.824C104.113 169.448 103.877 169.176 103.533 169.008C103.189 168.832 102.693 168.744 102.045 168.744C101.677 168.744 101.321 168.78 100.977 168.852C100.641 168.916 100.345 169 100.089 169.104C99.8413 169.208 99.6693 169.308 99.5733 169.404V169.284L99.4533 168.744C99.4933 168.72 99.6173 168.672 99.8253 168.6C100.033 168.52 100.329 168.444 100.713 168.372C101.105 168.3 101.581 168.264 102.141 168.264C103.181 168.264 103.921 168.48 104.361 168.912C104.809 169.336 105.033 169.992 105.033 170.88V173.28C105.033 173.504 105.057 173.668 105.105 173.772C105.161 173.868 105.217 173.944 105.273 174H104.433V173.388L104.457 173.16L104.433 173.148C104.385 173.204 104.305 173.288 104.193 173.4C104.081 173.504 103.917 173.612 103.701 173.724C103.493 173.836 103.217 173.928 102.873 174C102.537 174.08 102.109 174.12 101.589 174.12ZM101.745 173.628C102.241 173.628 102.689 173.568 103.089 173.448C103.497 173.328 103.821 173.164 104.061 172.956C104.309 172.74 104.433 172.5 104.433 172.236C104.433 171.9 104.241 171.62 103.857 171.396C103.473 171.164 102.853 171.048 101.997 171.048C100.469 171.048 99.7053 171.488 99.7053 172.368C99.7053 172.808 99.8653 173.128 100.185 173.328C100.505 173.528 101.025 173.628 101.745 173.628ZM106.349 174C106.405 174 106.457 173.944 106.505 173.832C106.561 173.72 106.589 173.536 106.589 173.28V169.224C106.589 168.968 106.561 168.788 106.505 168.684C106.457 168.572 106.405 168.512 106.349 168.504C106.597 168.504 106.793 168.48 106.937 168.432C107.081 168.376 107.173 168.32 107.213 168.264V169.116L107.189 169.32L107.213 169.344C107.301 169.192 107.417 169.032 107.561 168.864C107.705 168.696 107.905 168.556 108.161 168.444C108.417 168.324 108.741 168.264 109.133 168.264C109.565 168.264 109.941 168.32 110.261 168.432C110.589 168.536 110.817 168.644 110.945 168.756L110.825 169.404V169.524C110.721 169.356 110.517 169.184 110.213 169.008C109.909 168.832 109.517 168.744 109.037 168.744C108.453 168.744 108.001 168.94 107.681 169.332C107.369 169.724 107.213 170.24 107.213 170.88V173.28C107.213 173.536 107.237 173.72 107.285 173.832C107.341 173.944 107.397 174 107.453 174H106.349ZM113.96 174.12C113.376 174.12 112.988 173.988 112.796 173.724C112.604 173.46 112.508 173.088 112.508 172.608V168.864H111.428V168.384C111.796 168.384 112.068 168.348 112.244 168.276C112.42 168.196 112.536 168.044 112.592 167.82C112.656 167.588 112.688 167.244 112.688 166.788H113.132V168.384H115.784C115.728 168.392 115.672 168.432 115.616 168.504C115.568 168.576 115.544 168.696 115.544 168.864H113.132V172.62C113.132 172.98 113.2 173.24 113.336 173.4C113.472 173.552 113.684 173.628 113.972 173.628C114.348 173.628 114.668 173.564 114.932 173.436C115.204 173.3 115.404 173.184 115.532 173.088V173.22L115.652 173.664C115.628 173.688 115.544 173.736 115.4 173.808C115.264 173.88 115.072 173.948 114.824 174.012C114.584 174.084 114.296 174.12 113.96 174.12ZM118.874 174.12C118.002 174.12 117.366 173.976 116.966 173.688C116.574 173.392 116.378 172.952 116.378 172.368C116.378 171.792 116.606 171.348 117.062 171.036C117.518 170.724 118.234 170.568 119.21 170.568C119.762 170.568 120.21 170.616 120.554 170.712C120.898 170.8 121.162 170.9 121.346 171.012C121.53 171.124 121.654 171.212 121.718 171.276C121.718 170.676 121.654 170.192 121.526 169.824C121.398 169.448 121.162 169.176 120.818 169.008C120.474 168.832 119.978 168.744 119.33 168.744C118.962 168.744 118.606 168.78 118.262 168.852C117.926 168.916 117.63 169 117.374 169.104C117.126 169.208 116.954 169.308 116.858 169.404V169.284L116.738 168.744C116.778 168.72 116.902 168.672 117.11 168.6C117.318 168.52 117.614 168.444 117.998 168.372C118.39 168.3 118.866 168.264 119.426 168.264C120.466 168.264 121.206 168.48 121.646 168.912C122.094 169.336 122.318 169.992 122.318 170.88V173.28C122.318 173.504 122.342 173.668 122.39 173.772C122.446 173.868 122.502 173.944 122.558 174H121.718V173.388L121.742 173.16L121.718 173.148C121.67 173.204 121.59 173.288 121.478 173.4C121.366 173.504 121.202 173.612 120.986 173.724C120.778 173.836 120.502 173.928 120.158 174C119.822 174.08 119.394 174.12 118.874 174.12ZM119.03 173.628C119.526 173.628 119.974 173.568 120.374 173.448C120.782 173.328 121.106 173.164 121.346 172.956C121.594 172.74 121.718 172.5 121.718 172.236C121.718 171.9 121.526 171.62 121.142 171.396C120.758 171.164 120.138 171.048 119.282 171.048C117.754 171.048 116.99 171.488 116.99 172.368C116.99 172.808 117.15 173.128 117.47 173.328C117.79 173.528 118.31 173.628 119.03 173.628ZM117.314 167.448C117.314 167.232 117.354 167.012 117.434 166.788C117.514 166.564 117.642 166.38 117.818 166.236C117.994 166.084 118.226 166.008 118.514 166.008C118.786 166.008 119.01 166.056 119.186 166.152C119.37 166.248 119.53 166.36 119.666 166.488C119.802 166.616 119.938 166.728 120.074 166.824C120.218 166.92 120.382 166.968 120.566 166.968C120.742 166.968 120.882 166.9 120.986 166.764C121.098 166.628 121.154 166.46 121.154 166.26C121.154 166.18 121.138 166.12 121.106 166.08C121.082 166.04 121.058 166.016 121.034 166.008H121.646C121.646 166.248 121.602 166.48 121.514 166.704C121.434 166.92 121.302 167.1 121.118 167.244C120.942 167.38 120.714 167.448 120.434 167.448C120.17 167.448 119.95 167.4 119.774 167.304C119.598 167.208 119.442 167.096 119.306 166.968C119.178 166.84 119.042 166.728 118.898 166.632C118.762 166.536 118.594 166.488 118.394 166.488C118.21 166.488 118.066 166.544 117.962 166.656C117.858 166.76 117.806 166.9 117.806 167.076C117.806 167.164 117.818 167.244 117.842 167.316C117.874 167.38 117.902 167.424 117.926 167.448H117.314ZM126.635 174.12C125.835 174.12 125.207 173.992 124.751 173.736C124.303 173.48 123.987 173.132 123.803 172.692C123.627 172.252 123.539 171.756 123.539 171.204C123.539 170.644 123.631 170.144 123.815 169.704C124.007 169.264 124.327 168.916 124.775 168.66C125.223 168.396 125.843 168.264 126.635 168.264C127.427 168.264 128.047 168.396 128.495 168.66C128.951 168.916 129.271 169.264 129.455 169.704C129.639 170.144 129.731 170.644 129.731 171.204C129.731 171.756 129.631 172.252 129.431 172.692C129.239 173.132 128.919 173.48 128.471 173.736C128.023 173.992 127.411 174.12 126.635 174.12ZM126.635 173.64C127.459 173.64 128.075 173.456 128.483 173.088C128.899 172.712 129.107 172.084 129.107 171.204C129.107 170.324 128.899 169.696 128.483 169.32C128.067 168.936 127.451 168.744 126.635 168.744C125.819 168.744 125.203 168.94 124.787 169.332C124.371 169.724 124.163 170.352 124.163 171.216C124.163 172.08 124.367 172.7 124.775 173.076C125.191 173.452 125.811 173.64 126.635 173.64Z" fill="black"/>
<rect width="457" height="71" transform="translate(0 29)" fill="#2F2F2F"/>
</svg>
