<svg width="99" height="99" viewBox="0 0 99 99" fill="none" xmlns="http://www.w3.org/2000/svg">
<g clip-path="url(#clip0)">
<path d="M97.2675 50.2037C99.0619 52.5163 98.8453 55.3162 96.7416 56.4144L33.0026 89.7883C30.2027 91.2423 26.5212 90.0435 24.8506 87.1199L1.12923 45.6869C-0.255226 43.266 0.819852 40.4275 3.47274 39.3679L64.9533 14.8731C67.0106 14.061 69.911 14.9891 71.4424 16.9614L97.2675 50.2037Z" fill="#FF9A4C"/>
<path d="M82.6496 27.7046L6.52017 61.4187L-0.0153809 49.8481L75.4334 18.4929L82.6496 27.7046Z" fill="#2F2F2F"/>
<path d="M92.2402 49.9795C93.1219 51.1397 92.9982 52.5319 91.9308 53.0656L83.3534 57.4432C82.2474 58.0078 80.6154 57.4819 79.7337 56.2753L74.6986 49.3685C73.8556 48.2006 74.0644 46.8239 75.1627 46.298L83.6937 42.2374C84.7456 41.7347 86.2925 42.2374 87.1587 43.3512L92.2402 49.9795Z" fill="black"/>
</g>
<defs>
<clipPath id="clip0">
<rect width="99" height="99" fill="white"/>
</clipPath>
</defs>
</svg>
