<svg width="38" height="23" viewBox="0 0 38 23" fill="none" xmlns="http://www.w3.org/2000/svg">
<path d="M32.6562 1.88381e-08C34.0103 -7.75986e-05 35.3139 0.2397 36.3037 0.670874C37.2934 1.10205 37.8954 1.69246 37.9881 2.3228L38 2.49236V19.6673C38.0002 20.2991 37.4863 20.9074 36.5622 21.3693C35.6382 21.8311 34.3729 22.112 33.022 22.1553L32.6562 22.1608H5.34375C3.9897 22.1609 2.68608 21.9211 1.69634 21.4899C0.706597 21.0587 0.104553 20.4683 0.0118753 19.838L4.03719e-08 19.6695V2.49346C-0.000166302 1.86165 0.513701 1.25336 1.43775 0.791532C2.3618 0.329707 3.62713 0.0487856 4.978 0.00554118L5.34375 1.88381e-08H32.6562V1.88381e-08ZM32.6562 1.66231H5.34375C4.91331 1.66232 4.49744 1.73505 4.17304 1.86707C3.84864 1.99908 3.63766 2.18144 3.57912 2.38043L3.5625 2.49346V19.6684C3.5625 20.0896 4.23225 20.4375 5.1015 20.4918L5.34375 20.4996H32.6562C33.0867 20.4996 33.5026 20.4268 33.827 20.2948C34.1514 20.1628 34.3623 19.9805 34.4209 19.7815L34.4375 19.6684V2.49346C34.4375 2.29261 34.2816 2.09856 33.9987 1.94719C33.7158 1.79583 33.3249 1.69738 32.8985 1.67007L32.6562 1.6612V1.66231Z" fill="black"/>
<path d="M7.125 15.2367C7.125 15.0163 7.31267 14.8049 7.64672 14.649C7.98076 14.4931 8.43383 14.4055 8.90625 14.4055H29.0938C29.5662 14.4055 30.0192 14.4931 30.3533 14.649C30.6873 14.8049 30.875 15.0163 30.875 15.2367C30.875 15.4571 30.6873 15.6685 30.3533 15.8244C30.0192 15.9803 29.5662 16.0679 29.0938 16.0679H8.90625C8.43383 16.0679 7.98076 15.9803 7.64672 15.8244C7.31267 15.6685 7.125 15.4571 7.125 15.2367V15.2367Z" fill="black"/>
<path d="M7.125 6.37107C7.125 6.15064 7.31267 5.93923 7.64672 5.78336C7.98076 5.62748 8.43383 5.53992 8.90625 5.53992H29.0938C29.5662 5.53992 30.0192 5.62748 30.3533 5.78336C30.6873 5.93923 30.875 6.15064 30.875 6.37107C30.875 6.59151 30.6873 6.80291 30.3533 6.95879C30.0192 7.11466 29.5662 7.20223 29.0938 7.20223H8.90625C8.43383 7.20223 7.98076 7.11466 7.64672 6.95879C7.31267 6.80291 7.125 6.59151 7.125 6.37107V6.37107Z" fill="black"/>
<path d="M7.125 10.8039C7.125 10.5835 7.31267 10.3721 7.64672 10.2162C7.98076 10.0603 8.43383 9.97275 8.90625 9.97275H29.0938C29.3277 9.97275 29.5593 9.99425 29.7754 10.036C29.9915 10.0778 30.1879 10.139 30.3533 10.2162C30.5187 10.2934 30.6499 10.385 30.7394 10.4858C30.8289 10.5867 30.875 10.6948 30.875 10.8039C30.875 10.9131 30.8289 11.0211 30.7394 11.122C30.6499 11.2228 30.5187 11.3144 30.3533 11.3916C30.1879 11.4688 29.9915 11.53 29.7754 11.5718C29.5593 11.6136 29.3277 11.6351 29.0938 11.6351H8.90625C8.43383 11.6351 7.98076 11.5475 7.64672 11.3916C7.31267 11.2357 7.125 11.0243 7.125 10.8039V10.8039Z" fill="black"/>
</svg>
