<svg width="47" height="47" viewBox="0 0 47 47" fill="none" xmlns="http://www.w3.org/2000/svg">
<path d="M23.4999 3.91675C23.8548 3.91676 24.1977 4.0453 24.4652 4.27858C24.7327 4.51187 24.9066 4.83412 24.9549 5.18575L24.9686 5.3855V8.887C28.3403 9.22567 31.4912 10.7198 33.8871 13.1161C36.2831 15.5124 37.7768 18.6635 38.1149 22.0352L38.1874 22.0313H41.6145C41.9866 22.0314 42.3448 22.1728 42.6167 22.4269C42.8886 22.6809 43.054 23.0287 43.0793 23.4C43.1047 23.7712 42.9882 24.1383 42.7534 24.427C42.5185 24.7156 42.1829 24.9044 41.8142 24.9551L41.6145 24.9688L38.113 24.9669C37.7747 28.3389 36.2808 31.4902 33.8844 33.8866C31.4881 36.2829 28.3368 37.7769 24.9647 38.1151L24.9686 38.1876V41.6147C24.9685 41.9868 24.8271 42.345 24.5731 42.6169C24.319 42.8888 23.9713 43.0542 23.6 43.0795C23.2287 43.1049 22.8617 42.9884 22.573 42.7536C22.2843 42.5187 22.0956 42.1831 22.0448 41.8144L22.0311 41.6147L22.0331 38.1132C18.661 37.7749 15.5097 36.281 13.1134 33.8846C10.717 31.4883 9.22308 28.337 8.88484 24.9649L8.81238 24.9688H5.38529C5.01317 24.9687 4.65495 24.8274 4.38304 24.5733C4.11112 24.3192 3.94577 23.9715 3.92041 23.6002C3.89505 23.2289 4.01155 22.8619 4.24639 22.5732C4.48123 22.2845 4.81689 22.0958 5.18554 22.045L5.38529 22.0313H8.88679C9.22546 18.6596 10.7196 15.5088 13.1159 13.1128C15.5122 10.7169 18.6633 9.2232 22.035 8.88504L22.0311 8.81258V5.3855C22.0311 4.99596 22.1859 4.62238 22.4613 4.34693C22.7368 4.07149 23.1103 3.91675 23.4999 3.91675ZM23.4999 11.7501C20.3836 11.7501 17.3949 12.988 15.1914 15.1916C12.9878 17.3951 11.7499 20.3838 11.7499 23.5001C11.7499 26.6164 12.9878 29.605 15.1914 31.8086C17.3949 34.0121 20.3836 35.2501 23.4999 35.2501C26.6162 35.2501 29.6048 34.0121 31.8084 31.8086C34.0119 29.605 35.2499 26.6164 35.2499 23.5001C35.2499 20.3838 34.0119 17.3951 31.8084 15.1916C29.6048 12.988 26.6162 11.7501 23.4999 11.7501ZM23.4999 15.6667C25.5774 15.6667 27.5698 16.492 29.0389 17.9611C30.5079 19.4301 31.3332 21.4226 31.3332 23.5001C31.3332 25.5776 30.5079 27.57 29.0389 29.0391C27.5698 30.5081 25.5774 31.3334 23.4999 31.3334C21.4223 31.3334 19.4299 30.5081 17.9609 29.0391C16.4918 27.57 15.6665 25.5776 15.6665 23.5001C15.6665 21.4226 16.4918 19.4301 17.9609 17.9611C19.4299 16.492 21.4223 15.6667 23.4999 15.6667V15.6667Z" fill="black"/>
</svg>
