<svg width="33" height="33" viewBox="0 0 33 33" fill="none" xmlns="http://www.w3.org/2000/svg">
<path d="M16.5 2.97309C20.9056 2.97309 21.4274 2.98985 23.1673 3.06913C24.776 3.14261 25.6498 3.41137 26.2313 3.63735C27.0013 3.93667 27.551 4.29425 28.1284 4.87162C28.7059 5.449 29.0633 5.99865 29.3627 6.76874C29.5886 7.35023 29.8574 8.22396 29.9309 9.83258C30.0101 11.5726 30.0269 12.0944 30.0269 16.5C30.0269 20.9058 30.0101 21.4276 29.9309 23.1674C29.8574 24.7762 29.5886 25.6498 29.3627 26.2313C29.0633 27.0013 28.7057 27.5511 28.1284 28.1285C27.551 28.7059 27.0013 29.0635 26.2313 29.3627C25.6498 29.5886 24.776 29.8575 23.1673 29.9309C21.4277 30.0103 20.9059 30.027 16.5 30.027C12.094 30.027 11.5722 30.0103 9.83258 29.9309C8.22383 29.8574 7.35023 29.5886 6.76874 29.3627C5.99865 29.0635 5.44887 28.7059 4.8715 28.1285C4.29413 27.551 3.93654 27.0013 3.63735 26.2313C3.41137 25.6499 3.14248 24.7762 3.06913 23.1674C2.98972 21.4276 2.97296 20.9058 2.97296 16.5C2.97296 12.0944 2.98972 11.5726 3.06913 9.83271C3.14261 8.22396 3.41137 7.35023 3.63735 6.76874C3.93654 5.99865 4.29413 5.449 4.8715 4.87162C5.449 4.29413 5.99865 3.93667 6.76874 3.63735C7.35011 3.41137 8.22383 3.14261 9.83258 3.06913C11.5724 2.98985 12.0942 2.97309 16.5 2.97309ZM16.5 0C12.0188 0 11.4569 0.0189492 9.6971 0.0992578C7.94075 0.179437 6.74128 0.458391 5.69186 0.86625C4.60672 1.2879 3.68659 1.85212 2.76929 2.76942C1.852 3.68672 1.2879 4.60685 0.86625 5.69186C0.458262 6.74141 0.179437 7.94088 0.0992578 9.6971C0.0189492 11.4569 0 12.0188 0 16.5C0 20.9812 0.0189492 21.5431 0.0992578 23.3029C0.179437 25.0592 0.458262 26.2587 0.86625 27.3081C1.28777 28.3931 1.852 29.3134 2.76929 30.2307C3.68659 31.148 4.60672 31.7121 5.69186 32.1338C6.74141 32.5417 7.94075 32.8206 9.69697 32.9007C11.4569 32.981 12.0188 33 16.5 33C20.9812 33 21.5431 32.981 23.3029 32.9007C25.0591 32.8206 26.2586 32.5417 27.308 32.1338C28.3931 31.7122 29.3133 31.148 30.2306 30.2307C31.1479 29.3134 31.7121 28.3933 32.1338 27.3081C32.5416 26.2586 32.8206 25.0592 32.9007 23.303C32.981 21.5431 33 20.9812 33 16.5C33 12.0188 32.981 11.4569 32.9007 9.6971C32.8206 7.94088 32.5416 6.74141 32.1338 5.69198C31.7121 4.60685 31.1479 3.68672 30.2306 2.76942C29.3133 1.85212 28.3931 1.28777 27.3081 0.86625C26.2586 0.458391 25.0591 0.179437 23.3029 0.0992578C21.5431 0.0189492 20.9812 0 16.5 0ZM16.5 8.02699C11.8204 8.02699 8.02699 11.8207 8.02699 16.5C8.02699 21.1796 11.8204 24.973 16.5 24.973C21.1794 24.973 24.973 21.1796 24.973 16.5C24.973 11.8206 21.1794 8.02699 16.5 8.02699ZM16.5 22C13.4625 22 11 19.5375 11 16.5C11 13.4625 13.4625 11 16.5 11C19.5375 11 22 13.4625 22 16.5C22 19.5375 19.5375 22 16.5 22ZM27.2876 7.69222C27.2876 8.78586 26.4013 9.67222 25.3076 9.67222C24.2141 9.67222 23.3276 8.78586 23.3276 7.69222C23.3276 6.59871 24.2141 5.71222 25.3076 5.71222C26.4013 5.71222 27.2876 6.59871 27.2876 7.69222Z" fill="white"/>
</svg>
