<svg width="47" height="47" viewBox="0 0 47 47" fill="none" xmlns="http://www.w3.org/2000/svg">
<path d="M10.2812 7.83334H36.7187C38.3444 7.83324 39.9085 8.45522 41.0902 9.5717C42.2718 10.6882 42.9815 12.2145 43.0735 13.8376L43.0833 14.1979V32.8021C43.0834 34.4278 42.4614 35.9919 41.3449 37.1735C40.2285 38.3552 38.7021 39.0648 37.079 39.1569L36.7187 39.1667H10.2812C8.65552 39.1668 7.09142 38.5448 5.90976 37.4283C4.72809 36.3118 4.01846 34.7855 3.92642 33.1624L3.91663 32.8021V14.1979C3.91652 12.5722 4.5385 11.0081 5.65498 9.82648C6.77146 8.64481 8.2978 7.93517 9.92088 7.84314L10.2812 7.83334H36.7187H10.2812ZM40.1458 18.3555L24.1854 26.7567C24.0052 26.8519 23.8071 26.9086 23.6038 26.9231C23.4005 26.9376 23.1964 26.9096 23.0045 26.8409L22.8165 26.7587L6.85413 18.3574V32.8021C6.85416 33.6622 7.17759 34.4908 7.76021 35.1235C8.34283 35.7562 9.14205 36.1467 9.99921 36.2174L10.2812 36.2292H36.7187C37.5791 36.2291 38.408 35.9054 39.0407 35.3224C39.6735 34.7393 40.0637 33.9396 40.134 33.0821L40.1458 32.8021V18.3555ZM36.7187 10.7708H10.2812C9.42113 10.7709 8.5925 11.0943 7.95982 11.6769C7.32713 12.2595 6.93665 13.0588 6.86588 13.9159L6.85413 14.1979V15.0381L23.5 23.7977L40.1458 15.0361V14.1979C40.1457 13.3375 39.822 12.5086 39.239 11.8759C38.656 11.2432 37.8563 10.8529 36.9988 10.7826L36.7187 10.7708Z" fill="black"/>
</svg>
