<svg width="47" height="47" viewBox="0 0 47 47" fill="none" xmlns="http://www.w3.org/2000/svg">
<path d="M23.5784 3.91662C12.8859 3.91662 4.17132 12.6312 4.17132 23.3237C4.17132 26.7508 5.07215 30.08 6.75632 33.0175L4.01465 43.0833L14.2959 40.3808C17.1355 41.9279 20.3276 42.7504 23.5784 42.7504C34.2709 42.7504 42.9855 34.0358 42.9855 23.3433C42.9855 18.1537 40.9684 13.2775 37.3063 9.61537C35.5109 7.80181 33.3724 6.36389 31.0154 5.38547C28.6585 4.40705 26.1303 3.90773 23.5784 3.91662V3.91662ZM23.598 7.18704C27.9063 7.18704 31.9405 8.8712 34.9955 11.9262C36.4948 13.425 37.6835 15.2051 38.4934 17.1643C39.3033 19.1235 39.7184 21.2233 39.7151 23.3433C39.7151 32.2341 32.4692 39.4604 23.5784 39.4604C20.6801 39.4604 17.8405 38.6966 15.373 37.2083L14.7855 36.8754L8.67548 38.4812L10.3009 32.5279L9.90923 31.9012C8.29153 29.3332 7.43588 26.3588 7.44173 23.3237C7.46132 14.4329 14.6876 7.18704 23.598 7.18704V7.18704ZM16.7046 14.3545C16.3913 14.3545 15.8626 14.472 15.4121 14.9616C14.9813 15.4512 13.7084 16.6458 13.7084 19.0154C13.7084 21.4045 15.4513 23.6958 15.6667 24.0287C15.9409 24.3616 19.1134 29.2575 23.9896 31.3333C25.1451 31.862 26.0459 32.1558 26.7509 32.3712C27.9063 32.7433 28.9638 32.6845 29.8059 32.567C30.7459 32.43 32.6651 31.392 33.0763 30.2562C33.4876 29.1204 33.4876 28.1608 33.3701 27.9454C33.233 27.7495 32.9196 27.632 32.4301 27.4166C31.9405 27.1425 29.5513 25.9675 29.1205 25.8108C28.6701 25.6541 28.3959 25.5758 28.0238 26.0458C27.7105 26.5354 26.7705 27.632 26.4963 27.9454C26.2026 28.2783 25.9284 28.3175 25.4584 28.0825C24.9492 27.8279 23.3826 27.3187 21.5417 25.6737C20.0926 24.3812 19.133 22.795 18.8392 22.3054C18.6042 21.8354 18.8196 21.5416 19.0546 21.3262C19.2701 21.1108 19.5834 20.7583 19.7792 20.4645C20.0338 20.1904 20.1121 19.975 20.2688 19.6616C20.4255 19.3287 20.3471 19.0545 20.2296 18.8195C20.1121 18.6041 19.133 16.1758 18.7217 15.2162C18.3301 14.2762 17.9384 14.3937 17.6251 14.3741C17.3509 14.3741 17.0376 14.3545 16.7046 14.3545V14.3545Z" fill="black"/>
</svg>
