<svg width="47" height="47" viewBox="0 0 47 47" fill="none" xmlns="http://www.w3.org/2000/svg">
<path d="M11.4429 8.94578C14.6407 5.74794 18.9779 3.95142 23.5003 3.95142C28.0227 3.95142 32.3599 5.74794 35.5578 8.94578C38.7556 12.1436 40.5521 16.4808 40.5521 21.0032C40.5521 25.5257 38.7556 29.8629 35.5578 33.0607L33.2332 35.3598C31.5197 37.04 29.297 39.202 26.5632 41.8458C25.7415 42.6403 24.6433 43.0844 23.5003 43.0844C22.3574 43.0844 21.2591 42.6403 20.4375 41.8458L13.6009 35.1953C12.7412 34.3512 12.0225 33.6404 11.4429 33.0607C9.85938 31.4773 8.60329 29.5976 7.74631 27.5287C6.88933 25.4599 6.44824 23.2425 6.44824 21.0032C6.44824 18.7639 6.88933 16.5466 7.74631 14.4777C8.60329 12.4089 9.85938 10.5291 11.4429 8.94578V8.94578ZM33.48 11.0216C30.8327 8.37484 27.2424 6.88811 23.4989 6.88847C19.7555 6.88884 16.1655 8.37628 13.5187 11.0236C10.8719 13.6709 9.38519 17.2612 9.38555 21.0046C9.38592 24.7481 10.8734 28.3381 13.5207 30.9849L16.4307 33.8597C18.4409 35.8238 20.4567 37.7821 22.4781 39.7347C22.752 39.9997 23.1182 40.1479 23.4993 40.1479C23.8805 40.1479 24.2467 39.9997 24.5206 39.7347L31.1672 33.2722C32.0876 32.3694 32.8572 31.6076 33.478 30.9849C36.1247 28.338 37.6116 24.7483 37.6116 21.0052C37.6116 17.2621 36.1247 13.6723 33.478 11.0255L33.48 11.0216ZM23.5003 15.6648C24.2723 15.6648 25.0368 15.8169 25.7501 16.1123C26.4633 16.4078 27.1114 16.8408 27.6573 17.3867C28.2032 17.9326 28.6363 18.5807 28.9317 19.294C29.2272 20.0072 29.3792 20.7717 29.3792 21.5437C29.3792 22.3158 29.2272 23.0802 28.9317 23.7935C28.6363 24.5068 28.2032 25.1549 27.6573 25.7008C27.1114 26.2467 26.4633 26.6797 25.7501 26.9751C25.0368 27.2706 24.2723 27.4227 23.5003 27.4227C21.96 27.3945 20.4922 26.7629 19.4128 25.6636C18.3334 24.5644 17.7287 23.0853 17.7287 21.5447C17.7287 20.0041 18.3334 18.5251 19.4128 17.4258C20.4922 16.3265 21.96 15.6949 23.5003 15.6668V15.6648ZM23.5003 18.6023C23.114 18.6023 22.7316 18.6784 22.3747 18.8262C22.0178 18.974 21.6936 19.1907 21.4204 19.4638C21.1473 19.737 20.9306 20.0612 20.7828 20.4181C20.635 20.775 20.5589 21.1575 20.5589 21.5437C20.5589 21.93 20.635 22.3125 20.7828 22.6694C20.9306 23.0262 21.1473 23.3505 21.4204 23.6236C21.6936 23.8968 22.0178 24.1134 22.3747 24.2613C22.7316 24.4091 23.114 24.4852 23.5003 24.4852C24.2802 24.4852 25.0281 24.1754 25.5795 23.6239C26.131 23.0725 26.4408 22.3246 26.4408 21.5447C26.4408 20.7649 26.131 20.017 25.5795 19.4655C25.0281 18.9141 24.2802 18.6043 23.5003 18.6043V18.6023Z" fill="black"/>
</svg>
