<svg width="47" height="47" viewBox="0 0 47 47" fill="none" xmlns="http://www.w3.org/2000/svg">
<path d="M23.4997 3.91675C25.5772 3.91675 27.5696 4.74204 29.0387 6.21108C30.5077 7.68011 31.333 9.67255 31.333 11.7501V15.6667H34.7601C35.3387 15.6667 35.9117 15.7807 36.4463 16.0022C36.9809 16.2236 37.4666 16.5482 37.8758 16.9573C38.2849 17.3665 38.6095 17.8522 38.8309 18.3868C39.0524 18.9214 39.1663 19.4944 39.1663 20.073V38.6772C39.1663 39.2558 39.0524 39.8288 38.8309 40.3634C38.6095 40.898 38.2849 41.3837 37.8758 41.7929C37.4666 42.202 36.9809 42.5266 36.4463 42.748C35.9117 42.9694 35.3387 43.0834 34.7601 43.0834H12.2393C11.0706 43.0834 9.9499 42.6192 9.12357 41.7929C8.29724 40.9665 7.83301 39.8458 7.83301 38.6772V20.073C7.83301 18.9044 8.29724 17.7836 9.12357 16.9573C9.9499 16.131 11.0706 15.6667 12.2393 15.6667H15.6663V11.7501C15.6663 9.67255 16.4916 7.68011 17.9607 6.21108C19.4297 4.74204 21.4221 3.91675 23.4997 3.91675V3.91675ZM34.7601 18.6042H12.2393C11.8497 18.6042 11.4761 18.759 11.2007 19.0344C10.9253 19.3099 10.7705 19.6835 10.7705 20.073V38.6772C10.7705 39.4879 11.4285 40.1459 12.2393 40.1459H34.7601C35.1496 40.1459 35.5232 39.9912 35.7987 39.7157C36.0741 39.4403 36.2288 39.0667 36.2288 38.6772V20.073C36.2288 19.6835 36.0741 19.3099 35.7987 19.0344C35.5232 18.759 35.1496 18.6042 34.7601 18.6042ZM23.4997 26.4376C24.2787 26.4376 25.0259 26.7471 25.5768 27.298C26.1277 27.8488 26.4372 28.596 26.4372 29.3751C26.4372 30.1542 26.1277 30.9013 25.5768 31.4522C25.0259 32.0031 24.2787 32.3126 23.4997 32.3126C22.7206 32.3126 21.9734 32.0031 21.4225 31.4522C20.8717 30.9013 20.5622 30.1542 20.5622 29.3751C20.5622 28.596 20.8717 27.8488 21.4225 27.298C21.9734 26.7471 22.7206 26.4376 23.4997 26.4376ZM23.4997 6.85425C22.2012 6.85425 20.9559 7.37006 20.0378 8.2882C19.1197 9.20635 18.6038 10.4516 18.6038 11.7501V15.6667H28.3955V11.7501C28.3955 10.4516 27.8797 9.20635 26.9616 8.2882C26.0434 7.37006 24.7981 6.85425 23.4997 6.85425V6.85425Z" fill="black"/>
</svg>
