<svg width="47" height="47" viewBox="0 0 47 47" fill="none" xmlns="http://www.w3.org/2000/svg">
<path d="M34.7683 27.4167C35.3468 27.4164 35.9197 27.5301 36.4543 27.7514C36.9889 27.9726 37.4747 28.297 37.8838 28.706C38.293 29.115 38.6176 29.6006 38.8391 30.1351C39.0605 30.6695 39.1745 31.2424 39.1745 31.821V32.947C39.1745 34.6978 38.5479 36.3937 37.4081 37.7214C34.3335 41.313 29.659 43.0853 23.5 43.0853C17.3391 43.0853 12.6665 41.313 9.59977 37.7195C8.46469 36.3899 7.84113 34.6991 7.84119 32.9509V31.821C7.84093 31.2424 7.95466 30.6695 8.17588 30.1349C8.3971 29.6003 8.72148 29.1146 9.13048 28.7054C9.53948 28.2962 10.0251 27.9716 10.5596 27.7502C11.0941 27.5287 11.6669 27.4147 12.2455 27.4147H34.7683V27.4167ZM34.7683 30.3542H12.2455C12.0527 30.3539 11.8617 30.3917 11.6836 30.4653C11.5054 30.5389 11.3434 30.6469 11.207 30.7831C11.0706 30.9193 10.9624 31.0811 10.8886 31.2592C10.8147 31.4373 10.7767 31.6282 10.7767 31.821V32.9509C10.7767 34.0006 11.1527 35.015 11.8342 35.812C14.288 38.6869 18.1381 40.1478 23.5 40.1478C28.8619 40.1478 32.7159 38.6869 35.1756 35.812C35.8591 35.0139 36.2348 33.9978 36.2351 32.947V31.821C36.2353 31.6282 36.1976 31.4372 36.124 31.259C36.0504 31.0809 35.9424 30.9189 35.8061 30.7825C35.6699 30.6461 35.5081 30.5379 35.33 30.464C35.152 30.3902 34.9611 30.3522 34.7683 30.3522V30.3542ZM23.5 3.9245C26.0969 3.9245 28.5875 4.95612 30.4238 6.79241C32.2601 8.62871 33.2917 11.1193 33.2917 13.7162C33.2917 16.3131 32.2601 18.8036 30.4238 20.6399C28.5875 22.4762 26.0969 23.5078 23.5 23.5078C20.9031 23.5078 18.4126 22.4762 16.5763 20.6399C14.74 18.8036 13.7084 16.3131 13.7084 13.7162C13.7084 11.1193 14.74 8.62871 16.5763 6.79241C18.4126 4.95612 20.9031 3.9245 23.5 3.9245V3.9245ZM23.5 6.862C22.5999 6.862 21.7086 7.03929 20.877 7.38374C20.0455 7.7282 19.2899 8.23307 18.6534 8.86954C18.0169 9.50601 17.512 10.2616 17.1676 11.0932C16.8231 11.9248 16.6459 12.8161 16.6459 13.7162C16.6459 14.6163 16.8231 15.5076 17.1676 16.3391C17.512 17.1707 18.0169 17.9263 18.6534 18.5628C19.2899 19.1993 20.0455 19.7041 20.877 20.0486C21.7086 20.393 22.5999 20.5703 23.5 20.5703C25.3179 20.5703 27.0612 19.8482 28.3466 18.5628C29.6321 17.2774 30.3542 15.534 30.3542 13.7162C30.3542 11.8983 29.6321 10.1549 28.3466 8.86954C27.0612 7.58413 25.3179 6.862 23.5 6.862Z" fill="black"/>
</svg>
