<svg width="47" height="47" viewBox="0 0 47 47" fill="none" xmlns="http://www.w3.org/2000/svg">
<path d="M34.2709 23.5C37.1275 23.5 39.8671 24.6348 41.887 26.6547C43.9069 28.6746 45.0417 31.4142 45.0417 34.2708C45.0417 37.1274 43.9069 39.867 41.887 41.887C39.8671 43.9069 37.1275 45.0417 34.2709 45.0417C31.4143 45.0417 28.6747 43.9069 26.6547 41.887C24.6348 39.867 23.5 37.1274 23.5 34.2708C23.5 31.4142 24.6348 28.6746 26.6547 26.6547C28.6747 24.6348 31.4143 23.5 34.2709 23.5V23.5ZM26.9271 3.91666C28.0957 3.91666 29.2165 4.38089 30.0428 5.20722C30.8691 6.03355 31.3334 7.1543 31.3334 8.32291V21.8824C30.3127 22.1234 29.3259 22.4904 28.3959 22.9752V8.32291C28.3959 7.93337 28.2411 7.55979 27.9657 7.28434C27.6902 7.0089 27.3167 6.85416 26.9271 6.85416H12.2396C11.8501 6.85416 11.4765 7.0089 11.2011 7.28434C10.9256 7.55979 10.7709 7.93337 10.7709 8.32291V38.6771C10.7709 39.4878 11.4289 40.1458 12.2396 40.1458L22.9772 40.1478C23.5392 41.2268 24.252 42.2158 25.0863 43.0853L12.2396 43.0833C11.071 43.0833 9.95027 42.6191 9.12394 41.7928C8.2976 40.9664 7.83337 39.8457 7.83337 38.6771V8.32291C7.83337 7.1543 8.2976 6.03355 9.12394 5.20722C9.95027 4.38089 11.071 3.91666 12.2396 3.91666H26.9271ZM34.2709 27.4167L34.0946 27.4304C33.899 27.4661 33.7189 27.5606 33.5782 27.7012C33.4376 27.8418 33.3431 28.022 33.3074 28.2176L33.2917 28.3958V33.2917H28.392L28.2157 33.3073C28.0201 33.3431 27.8399 33.4375 27.6993 33.5782C27.5587 33.7188 27.4642 33.8989 27.4285 34.0946L27.4128 34.2708L27.4285 34.4471C27.4642 34.6427 27.5587 34.8228 27.6993 34.9635C27.8399 35.1041 28.0201 35.1986 28.2157 35.2343L28.392 35.25H33.2917V40.1517L33.3074 40.3279C33.3431 40.5236 33.4376 40.7037 33.5782 40.8444C33.7189 40.985 33.899 41.0795 34.0946 41.1152L34.2709 41.1309L34.4471 41.1152C34.6428 41.0795 34.8229 40.985 34.9635 40.8444C35.1042 40.7037 35.1986 40.5236 35.2344 40.3279L35.25 40.1517V35.25L40.1537 35.2519L40.33 35.2363C40.5256 35.2005 40.7057 35.1061 40.8464 34.9654C40.987 34.8248 41.0815 34.6447 41.1172 34.449L41.1329 34.2728L41.1172 34.0965C41.0813 33.9006 40.9866 33.7203 40.8456 33.5796C40.7046 33.439 40.524 33.3447 40.328 33.3093L40.1518 33.2936H35.25V28.3978L35.2344 28.2215C35.199 28.0255 35.1047 27.845 34.964 27.704C34.8234 27.563 34.643 27.4682 34.4471 27.4323L34.2709 27.4167ZM17.1335 34.2787L21.5417 34.2689C21.5417 35.2813 21.6592 36.2664 21.8825 37.2064L17.1374 37.2162C16.7479 37.2167 16.3741 37.0624 16.0983 36.7874C15.8225 36.5123 15.6672 36.1389 15.6667 35.7494C15.6662 35.3598 15.8204 34.986 16.0955 34.7102C16.3706 34.4344 16.744 34.2792 17.1335 34.2787V34.2787Z" fill="black"/>
</svg>
