<svg width="60" height="60" viewBox="0 0 60 60" fill="none" xmlns="http://www.w3.org/2000/svg">
<path d="M41.8925 23.2575C42.2592 22.9213 42.4773 22.4533 42.4988 21.9563C42.5204 21.4593 42.3437 20.9742 42.0075 20.6075C41.6713 20.2408 41.2033 20.0227 40.7063 20.0012C40.2093 19.9796 39.7242 20.1563 39.3575 20.4925L25.6825 33.03L20.7 28.05C20.3446 27.7188 19.8744 27.5385 19.3887 27.5471C18.9029 27.5556 18.4395 27.7524 18.0959 28.0959C17.7524 28.4395 17.5556 28.9029 17.5471 29.3887C17.5385 29.8744 17.7188 30.3446 18.05 30.7L24.3 36.95C24.6415 37.2917 25.1017 37.4885 25.5847 37.4992C26.0677 37.5099 26.5362 37.3338 26.8925 37.0075L41.8925 23.2575ZM50.625 12.5C43.9675 12.5 37.48 10.1425 31.125 5.375C30.8004 5.13158 30.4057 5 30 5C29.5943 5 29.1996 5.13158 28.875 5.375C22.52 10.1425 16.0325 12.5 9.375 12.5C8.87772 12.5 8.40081 12.6975 8.04917 13.0492C7.69754 13.4008 7.5 13.8777 7.5 14.375V27.5C7.5 40.0025 14.895 49.19 29.3125 54.87C29.7543 55.0441 30.2457 55.0441 30.6875 54.87C45.105 49.19 52.5 40 52.5 27.5V14.375C52.5 13.8777 52.3025 13.4008 51.9508 13.0492C51.5992 12.6975 51.1223 12.5 50.625 12.5ZM11.25 16.195C17.6925 15.815 23.95 13.47 30 9.195C36.05 13.47 42.3075 15.815 48.75 16.195V27.5C48.75 38.14 42.6175 45.9475 30 51.105C17.3825 45.9475 11.25 38.14 11.25 27.5V16.195Z" fill="#FC6F03"/>
</svg>
