<svg width="60" height="60" viewBox="0 0 60 60" fill="none" xmlns="http://www.w3.org/2000/svg">
<path d="M50.625 12.5C43.9675 12.5 37.48 10.1425 31.125 5.375C30.8004 5.13158 30.4057 5 30 5C29.5943 5 29.1996 5.13158 28.875 5.375C22.52 10.1425 16.0325 12.5 9.375 12.5C8.87772 12.5 8.40081 12.6975 8.04917 13.0492C7.69754 13.4008 7.5 13.8777 7.5 14.375V27.5C7.5 40.0025 14.895 49.19 29.3125 54.87C29.7543 55.0441 30.2457 55.0441 30.6875 54.87C45.105 49.19 52.5 40 52.5 27.5V14.375C52.5 13.8777 52.3025 13.4008 51.9508 13.0492C51.5992 12.6975 51.1223 12.5 50.625 12.5ZM41.8925 23.2575L26.8925 37.0075C26.5362 37.3338 26.0677 37.5099 25.5847 37.4992C25.1017 37.4885 24.6415 37.2917 24.3 36.95L18.05 30.7C17.8658 30.5283 17.718 30.3213 17.6155 30.0913C17.5131 29.8613 17.458 29.6131 17.4535 29.3613C17.4491 29.1095 17.4954 28.8595 17.5897 28.626C17.684 28.3925 17.8244 28.1805 18.0024 28.0024C18.1805 27.8244 18.3925 27.684 18.626 27.5897C18.8595 27.4954 19.1095 27.4491 19.3613 27.4535C19.6131 27.458 19.8613 27.5131 20.0913 27.6155C20.3213 27.718 20.5283 27.8658 20.7 28.05L25.6825 33.03L39.3575 20.4925C39.7242 20.1563 40.2093 19.9796 40.7063 20.0012C41.2033 20.0227 41.6713 20.2408 42.0075 20.6075C42.3437 20.9742 42.5204 21.4593 42.4988 21.9563C42.4773 22.4533 42.2592 22.9213 41.8925 23.2575Z" fill="#FC6F03"/>
</svg>
