<svg width="60" height="60" viewBox="0 0 60 60" fill="none" xmlns="http://www.w3.org/2000/svg">
<path d="M28.2823 38.75C28.7098 37.4291 29.3055 36.1688 30.0548 35H10.6298C9.89126 35 9.15993 35.1455 8.47761 35.4282C7.79529 35.7109 7.17536 36.1253 6.65323 36.6477C6.1311 37.17 5.717 37.7902 5.43459 38.4726C5.15218 39.155 5.007 39.8864 5.00732 40.625V42.0675C5.00732 44.2975 5.80482 46.4575 7.25482 48.155C11.1698 52.74 17.1348 55.005 24.9998 55.005C27.3273 55.005 29.4898 54.805 31.4798 54.405C30.5778 53.3676 29.8109 52.2202 29.1973 50.99C27.8873 51.165 26.4898 51.2525 24.9973 51.2525C18.1548 51.2525 13.2398 49.39 10.1048 45.72C9.23522 44.7017 8.75742 43.4066 8.75732 42.0675V40.6225C8.75732 39.59 9.59732 38.75 10.6323 38.75H28.2823Z" fill="#FC6F03"/>
<path d="M25 5.01245C26.6415 5.01245 28.267 5.33577 29.7835 5.96396C31.3001 6.59214 32.6781 7.51288 33.8388 8.67362C34.9996 9.83435 35.9203 11.2123 36.5485 12.7289C37.1767 14.2455 37.5 15.8709 37.5 17.5124C37.5 19.154 37.1767 20.7794 36.5485 22.296C35.9203 23.8126 34.9996 25.1905 33.8388 26.3513C32.6781 27.512 31.3001 28.4328 29.7835 29.0609C28.267 29.6891 26.6415 30.0124 25 30.0124C21.6848 30.0124 18.5054 28.6955 16.1612 26.3513C13.817 24.0071 12.5 20.8277 12.5 17.5124C12.5 14.1972 13.817 11.0178 16.1612 8.67362C18.5054 6.32941 21.6848 5.01245 25 5.01245ZM25 8.76245C23.8509 8.76245 22.7131 8.98878 21.6515 9.4285C20.5899 9.86823 19.6253 10.5128 18.8128 11.3253C18.0003 12.1378 17.3558 13.1024 16.9161 14.164C16.4763 15.2256 16.25 16.3634 16.25 17.5124C16.25 18.6615 16.4763 19.7993 16.9161 20.8609C17.3558 21.9225 18.0003 22.8871 18.8128 23.6996C19.6253 24.5121 20.5899 25.1567 21.6515 25.5964C22.7131 26.0361 23.8509 26.2624 25 26.2624C27.3206 26.2624 29.5462 25.3406 31.1872 23.6996C32.8281 22.0587 33.75 19.8331 33.75 17.5124C33.75 15.1918 32.8281 12.9662 31.1872 11.3253C29.5462 9.68432 27.3206 8.76245 25 8.76245Z" fill="#FC6F03"/>
<path d="M57.5 43.75C57.5 47.3967 56.0513 50.8941 53.4727 53.4727C50.8941 56.0513 47.3967 57.5 43.75 57.5C40.1033 57.5 36.6059 56.0513 34.0273 53.4727C31.4487 50.8941 30 47.3967 30 43.75C30 40.1033 31.4487 36.6059 34.0273 34.0273C36.6059 31.4487 40.1033 30 43.75 30C47.3967 30 50.8941 31.4487 53.4727 34.0273C56.0513 36.6059 57.5 40.1033 57.5 43.75ZM45.8825 36.6175C45.6467 36.3898 45.331 36.2638 45.0032 36.2667C44.6755 36.2695 44.362 36.401 44.1302 36.6327C43.8985 36.8645 43.767 37.178 43.7642 37.5057C43.7613 37.8335 43.8873 38.1492 44.115 38.385L48.2325 42.5H37.5C37.1685 42.5 36.8505 42.6317 36.6161 42.8661C36.3817 43.1005 36.25 43.4185 36.25 43.75C36.25 44.0815 36.3817 44.3995 36.6161 44.6339C36.8505 44.8683 37.1685 45 37.5 45H48.2325L44.115 49.1175C43.8873 49.3532 43.7613 49.669 43.7642 49.9967C43.767 50.3245 43.8985 50.638 44.1302 50.8698C44.362 51.1015 44.6755 51.233 45.0032 51.2358C45.331 51.2387 45.6467 51.1127 45.8825 50.885L52.1325 44.635C52.3629 44.4065 52.4948 44.097 52.5 43.7725V43.75C52.5002 43.5837 52.4672 43.4191 52.4028 43.2658C52.3384 43.1125 52.2439 42.9737 52.125 42.8575L45.8825 36.6175Z" fill="#FC6F03"/>
</svg>
