<svg width="82" height="82" viewBox="0 0 82 82" fill="none" xmlns="http://www.w3.org/2000/svg">
<path d="M61.4996 6.83325C62.0899 6.83347 62.6619 7.03743 63.1192 7.41067L63.3788 7.64984L74.5582 19.7107L74.6606 19.8405C75.0091 20.3052 75.1663 20.8313 75.1663 21.3438V27.9073C75.1663 31.3034 73.8714 34.3989 71.7496 36.7223V72.6041C71.7495 73.2238 71.5248 73.8225 71.1171 74.2893C70.7094 74.756 70.1463 75.0592 69.5322 75.1427L69.1871 75.1666H12.8122C12.1929 75.1666 11.5946 74.9423 11.128 74.5353C10.6613 74.1283 10.3578 73.5661 10.2736 72.9526L10.2497 72.6041V36.7223C8.2294 34.5114 7.03142 31.6727 6.8569 28.6828L6.83298 27.9038V21.4908C6.8033 21.004 6.91736 20.5192 7.16098 20.0968L7.38307 19.7722L7.51973 19.615L18.6205 7.65325C19.0225 7.21963 19.562 6.93838 20.1477 6.85717L20.4996 6.83325H61.4996ZM51.5298 35.6768L51.4888 35.7383C50.2709 37.3723 48.6879 38.6991 46.8661 39.6126C45.0443 40.5262 43.0342 41.0013 40.9962 40.9999C38.9466 41.0013 36.9254 40.5209 35.0957 39.5975C33.2659 38.674 31.6789 37.3333 30.4627 35.6836C29.2471 37.3332 27.6607 38.6739 25.8315 39.5974C24.0023 40.5209 21.9816 41.0014 19.9325 40.9999C18.3266 40.9999 16.7926 40.7129 15.3746 40.1868V70.0416H20.4996V46.9859C20.4997 46.3667 20.7239 45.7684 21.1309 45.3017C21.5379 44.8351 22.1002 44.5316 22.7136 44.4473L23.0621 44.4166H38.4235C39.0427 44.4166 39.641 44.6409 40.1077 45.0479C40.5743 45.4549 40.8778 46.0171 40.9621 46.6306L40.986 46.9791V70.0348H66.6178V40.1833C63.9544 41.173 61.0411 41.2682 58.3187 40.4544C55.5964 39.6407 53.2132 37.9623 51.5298 35.6733V35.6768ZM35.8576 49.545H25.6246V70.0382H35.8576V49.545ZM58.9542 44.42C59.5735 44.42 60.1717 44.6443 60.6384 45.0513C61.1051 45.4583 61.4086 46.0205 61.4928 46.634L61.5167 46.9825V58.9477C61.5166 59.5674 61.2919 60.1661 60.8842 60.6329C60.4765 61.0996 59.9134 61.4028 59.2993 61.4863L58.9542 61.5102H46.9891C46.3698 61.5101 45.7716 61.2859 45.3049 60.8789C44.8382 60.4719 44.5347 59.9096 44.4505 59.2962L44.4266 58.9477V46.9825C44.4266 46.3633 44.6508 45.765 45.0579 45.2983C45.4649 44.8316 46.0271 44.5281 46.6406 44.4439L46.9891 44.42H58.9542ZM56.3883 49.545H49.5516V56.3852H56.3849V49.545H56.3883ZM27.9002 23.9234H11.958V27.9038L11.9785 28.4847L12.0776 29.2773L12.1869 29.8103L12.3577 30.398L12.5422 30.9037L12.6789 31.2248C12.7882 31.4572 12.9044 31.6827 13.0342 31.9013L13.3827 32.4548L13.5706 32.7077L14.0114 33.2407L14.4931 33.7327L14.8246 34.0231L14.9681 34.1393C16.0409 34.9934 17.3426 35.5811 18.764 35.7895L19.379 35.8544L19.9256 35.8715C24.1452 35.8715 27.5995 32.5949 27.8796 28.4471L27.8967 27.9004V23.9268L27.9002 23.9234ZM48.9639 23.9234H33.0252V27.9038C33.0252 31.9355 36.025 35.2736 39.9131 35.7998L40.4496 35.8544L40.9962 35.8715C45.2124 35.8715 48.6666 32.5949 48.9468 28.4471L48.9639 27.9004V23.9268V23.9234ZM70.0345 23.9234H54.0957V27.9038C54.0957 31.9355 57.0956 35.2736 60.9871 35.7998L61.5201 35.8544L62.0668 35.8715C63.9938 35.8715 65.7636 35.1882 67.1406 34.047L67.4481 33.7805L67.8444 33.3944L68.3432 32.8136C68.5277 32.5778 68.702 32.3353 68.8557 32.0756L69.2111 31.4401L69.4263 30.9686L69.6245 30.439L69.727 30.111L69.8568 29.5917L69.9559 29.0553L70.0174 28.4847L70.0379 27.9038L70.0345 23.9234ZM30.9615 11.9548H21.6169L15.2687 18.7984H28.8568L30.9615 11.9548ZM45.6736 11.9548H36.3188L34.2141 18.7984H47.7783L45.6736 11.9548ZM60.379 11.9548H51.0344L53.1425 18.7984H66.7271L60.379 11.9548Z" fill="#000341"/>
</svg>
