<svg width="45" height="45" viewBox="0 0 45 45" fill="none" xmlns="http://www.w3.org/2000/svg">
<path d="M22.5 3.75C32.8556 3.75 41.25 12.1463 41.25 22.5C41.25 32.8538 32.8556 41.25 22.5 41.25C12.1444 41.25 3.75 32.8538 3.75 22.5C3.75 12.1463 12.1444 3.75 22.5 3.75ZM22.5 6.87563C13.8844 6.87563 6.87563 13.8844 6.87563 22.5C6.87563 31.1156 13.8844 38.1244 22.5 38.1244C31.1156 38.1244 38.1244 31.1156 38.1244 22.5C38.1244 13.8844 31.1156 6.87563 22.5 6.87563ZM21.0938 11.25C21.4336 11.25 21.7619 11.3731 22.018 11.5964C22.2741 11.8198 22.4407 12.1283 22.4869 12.465L22.5 12.6562V22.5H28.5938C28.95 22.5001 29.293 22.6355 29.5534 22.8787C29.8137 23.1219 29.972 23.4549 29.9963 23.8104C30.0206 24.1659 29.909 24.5173 29.6842 24.7937C29.4593 25.0701 29.138 25.2508 28.785 25.2994L28.5938 25.3125H21.0938C20.7539 25.3125 20.4256 25.1894 20.1695 24.9661C19.9134 24.7427 19.7468 24.4342 19.7006 24.0975L19.6875 23.9062V12.6562C19.6875 12.2833 19.8357 11.9256 20.0994 11.6619C20.3631 11.3982 20.7208 11.25 21.0938 11.25Z" fill="black"/>
</svg>
